<svg width="70" height="15" viewBox="0 0 70 15" fill="none" xmlns="http://www.w3.org/2000/svg">
<path d="M7.00033 10.7143L10.6053 12.8901L9.64866 8.78926L12.8337 6.0301L8.63949 5.66843L7.00033 1.80676L5.36116 5.66843L1.16699 6.0301L4.34616 8.78926L3.39533 12.8901L7.00033 10.7143Z" fill="#D2BEFF"/>
<path d="M21.0003 10.7143L24.6053 12.8901L23.6487 8.78926L26.8337 6.0301L22.6395 5.66843L21.0003 1.80676L19.3612 5.66843L15.167 6.0301L18.3462 8.78926L17.3953 12.8901L21.0003 10.7143Z" fill="#D2BEFF"/>
<path d="M35.0003 10.7143L38.6053 12.8901L37.6487 8.78926L40.8337 6.0301L36.6395 5.66843L35.0003 1.80676L33.3612 5.66843L29.167 6.0301L32.3462 8.78926L31.3953 12.8901L35.0003 10.7143Z" fill="#D2BEFF"/>
<path d="M49.0003 10.7143L52.6053 12.8901L51.6487 8.78926L54.8337 6.0301L50.6395 5.66843L49.0003 1.80676L47.3612 5.66843L43.167 6.0301L46.3462 8.78926L45.3953 12.8901L49.0003 10.7143Z" fill="#D2BEFF"/>
<path d="M63.0003 10.7143L66.6053 12.8901L65.6487 8.78926L68.8337 6.0301L64.6395 5.66843L63.0003 1.80676L61.3612 5.66843L57.167 6.0301L60.3462 8.78926L59.3953 12.8901L63.0003 10.7143Z" fill="#D2BEFF"/>
</svg>
