<svg xmlns="http://www.w3.org/2000/svg" viewBox="0 0 115.44 141.64"><defs><style>.cls-1{fill:none;stroke-width:3px;}.cls-1,.cls-2{stroke:#040f14;stroke-miterlimit:10;}.cls-2{fill:#010101;}</style></defs><g id="Capa_2" data-name="Capa 2"><g id="Capa_2-2" data-name="Capa 2"><path class="cls-1" d="M49.38,20.4a16.94,16.94,0,0,0-7.75-1.85c-8.89,0-16.1,6.71-16.1,15,0,5.34,5.5,10.69,5.5,10.69,1.11,1.09,2,2,2,2a23.87,23.87,0,0,1-2.79-.68,13.3,13.3,0,0,0-3.4-.36c-8.89,0-16.1,6.71-16.1,15s7.21,15,16.1,15a13.48,13.48,0,0,0,3.38-.35c1.5-.43,2.74-.76,2.75-.73s-.86,1-2,2.06c0,0-5.46,5.34-5.46,10.67,0,8.28,7.21,15,16.1,15S56.45,89.68,56.45,89.68c.69-1.39,1.26-2.53,1.27-2.53h0L59,89.69s6,12.17,14.83,12.17,16.09-6.71,16.09-15c0-5.33-5.47-10.68-5.47-10.68-1.11-1.09-2-2-2-2s1.28.27,2.78.69a13.66,13.66,0,0,0,3.4.35c8.89,0,16.09-6.71,16.09-15s-7.2-15-16.09-15a13.66,13.66,0,0,0-3.4.35c-1.5.43-2.74.76-2.75.73a25.72,25.72,0,0,1,2-2.07s5.47-5.36,5.47-10.69c0-8.28-7.2-15-16.09-15a17,17,0,0,0-7.5,1.72"/><circle class="cls-2" cx="47.53" cy="70.06" r="2.98"/><line class="cls-2" x1="47.53" y1="67.61" x2="44.32" y2="64.41"/><circle class="cls-2" cx="68.81" cy="70.06" r="2.98"/><line class="cls-2" x1="68.81" y1="67.61" x2="65.61" y2="64.41"/><path class="cls-2" d="M57.72,76a8.47,8.47,0,0,1-6.33-2.44h0c0,2.54,2.83,4.59,6.33,4.59s6.34-2,6.34-4.59h0A8.43,8.43,0,0,1,57.72,76Z"/><path class="cls-1" d="M59.8,4.9l-1-2.44c-.57-1.34-1.53-1.27-2.14.17L42.37,36.22a3.65,3.65,0,0,0,1.22,4.23S48,43.53,57.73,43.56"/><path class="cls-1" d="M55.64,4.9l1-2.44c.57-1.34,1.53-1.27,2.14.17L73.07,36.22a3.65,3.65,0,0,1-1.22,4.23s-4.43,3.08-14.13,3.11"/><path class="cls-1" d="M61.22,93.22v42.7a3.5,3.5,0,0,1-3.5,3.5h0a3.5,3.5,0,0,1-3.5-3.5V93.22"/><path class="cls-1" d="M53.32,138.14s-13.65,4.28-33.65.32C4,135.34-1.59,117.34,3.13,109.16s21.76-11,33.64-.32S53.32,138.14,53.32,138.14Z"/><path class="cls-1" d="M62.13,138.14s13.64,4.28,33.64.32c15.7-3.12,21.27-21.12,16.55-29.3s-21.77-11-33.65-.32S62.13,138.14,62.13,138.14Z"/></g></g></svg>