<svg xmlns="http://www.w3.org/2000/svg" viewBox="0 0 156.59 137.74"><defs><style>.cls-1{fill:none;stroke-width:6px;}.cls-1,.cls-2{stroke:#040f14;stroke-miterlimit:10;}.cls-2{fill:#1d1d1b;stroke-width:3px;}</style></defs><g id="Capa_2" data-name="Capa 2"><g id="Capa_2-2" data-name="Capa 2"><path class="cls-1" d="M121.61,18.72c-5.64-5.64-16.09-4.47-24.33,2.33C96,10.81,89.58,3,81.8,3c-7.61,0-14,7.49-15.39,17.42-8.11-6.24-18.08-7.16-23.54-1.7-6.13,6.13-4.23,18,4.24,26.45l.76.7h0s32.67,36.1,68.76,0h0l.76-.7C125.84,36.69,127.74,24.85,121.61,18.72Z"/><path class="cls-1" d="M38.32,91.56a43.53,43.53,0,0,1,13.56-42"/><path class="cls-1" d="M43.81,105a43.31,43.31,0,0,1-3.62-7.24"/><path class="cls-1" d="M112.66,114.52a45.61,45.61,0,0,1-64.8-4"/><path class="cls-1" d="M112.66,49.57a43.59,43.59,0,0,1,14.55,32.48,42.91,42.91,0,0,1-.42,6"/><ellipse class="cls-2" cx="62.84" cy="90.22" rx="2.04" ry="5.11"/><ellipse class="cls-2" cx="101.64" cy="90.22" rx="2.04" ry="5.11"/><path class="cls-1" d="M72.83,108.82a3.85,3.85,0,0,1,0-.48c0-3.94,4.63-7.15,10.34-7.15s10.34,3.21,10.34,7.15c0,.14,0,.27,0,.41"/><path class="cls-1" d="M93.49,108.56c0,7.23-4.63,13.1-10.34,13.1s-10.34-5.87-10.34-13.1"/><ellipse class="cls-1" cx="78.06" cy="129.64" rx="4.21" ry="2.62" transform="translate(-68.81 93.17) rotate(-45)"/><ellipse class="cls-1" cx="88.24" cy="129.64" rx="2.62" ry="4.21" transform="translate(-65.82 100.36) rotate(-45)"/><ellipse class="cls-1" cx="133.16" cy="110.05" rx="24.94" ry="20.26" transform="translate(-5.84 212.62) rotate(-75.99)"/><path class="cls-1" d="M44.82,125.6c.64,1.42,0,2.13-1.5,1.59L34,123.68a3.51,3.51,0,0,0-4.09,1.45l-5,8.62c-.78,1.34-1.76,1.21-2.16-.29l-2.38-8.89a3.05,3.05,0,0,0-3.51-2.17L6.42,124.54c-1.52.31-2-.43-1-1.65l6.33-8a2.84,2.84,0,0,0-.46-4L3.77,105c-1.23-1-1-1.84.6-2l10.48-.73a3.33,3.33,0,0,0,3-3L18.5,90c.1-1.56,1.06-1.9,2.12-.76L27,96.08a3.35,3.35,0,0,0,4.25.44l8.59-6c1.28-.9,2-.39,1.7,1.13l-2.09,9.33a2.81,2.81,0,0,0,2.14,3.37l10,2.19c1.52.34,1.63,1.2.25,1.92l-9.4,4.89a3.06,3.06,0,0,0-1.35,3.9Z"/></g></g></svg>