<svg xmlns="http://www.w3.org/2000/svg" viewBox="0 0 144.85 164.82"><defs><style>.cls-1{fill:none;stroke-width:3px;}.cls-1,.cls-2{stroke:#010101;stroke-miterlimit:10;}.cls-2,.cls-3{fill:#010101;}</style></defs><g id="Capa_2" data-name="Capa 2"><g id="Capa_2-2" data-name="Capa 2"><path class="cls-1" d="M89.26,34.67c28.15,4,48.83,17.14,48.83,32.79,0,18.78-29.77,34-66.5,34s-66.5-15.22-66.5-34C5.09,50.84,28.42,37,59.24,34"/><path class="cls-1" d="M138.09,95.69c0,18.77-29.77,34-66.5,34s-66.5-15.23-66.5-34"/><path class="cls-1" d="M5.17,68.18V119.9c0,.54-.08,1.09-.08,1.64s0,1.09.08,1.63v.12h0C7,141.25,36,155.54,71.59,155.54s64.63-14.29,66.41-32.25h0v-.12c.05-.54.08-1.09.08-1.63s0-1.1-.08-1.64V67.46"/><path class="cls-1" d="M59.49,33.46l-1.17,2.76a3.65,3.65,0,0,0,1.22,4.23S64,43.53,73.68,43.56"/><path class="cls-1" d="M75.75,4.9l-1-2.44c-.57-1.34-1.53-1.27-2.14.17L59.49,33.46"/><path class="cls-1" d="M71.59,4.9l1-2.44c.57-1.34,1.53-1.27,2.14.17L89,36.22a3.65,3.65,0,0,1-1.22,4.23s-4.43,3.08-14.14,3.11"/><circle class="cls-2" cx="58.08" cy="66.33" r="4.36"/><circle class="cls-2" cx="89.26" cy="66.33" r="4.36"/><path class="cls-3" d="M74,75.06c-4,0-7.42-1.44-9.27-3.57h0c0,3.72,4.15,6.73,9.28,6.73s9.27-3,9.27-6.73h0C81.43,73.62,78,75.06,74,75.06Z"/><path class="cls-1" d="M5.09,125.59s-13.41,15,11.61,15.15"/><path class="cls-1" d="M138.75,123.91s13.79,8.5-6.37,13.91"/><path class="cls-1" d="M17.31,140.86s-5.64,19.3,17,8.65"/><path class="cls-1" d="M131.19,137.82s7.64,18.6-16,10.4"/><path class="cls-1" d="M33.92,149.4s-.87,20.09,18.58,4.34"/><path class="cls-1" d="M113.75,148.4s.86,20.09-18.59,4.34"/><path class="cls-1" d="M53.9,154.22S56.78,174.13,73,155"/><path class="cls-1" d="M92.83,154.22S90,174.13,73.76,155"/><ellipse class="cls-1" cx="32.78" cy="70.74" rx="6.89" ry="3.28"/><ellipse class="cls-1" cx="115.25" cy="71.49" rx="6.89" ry="3.28"/></g></g></svg>