<svg xmlns="http://www.w3.org/2000/svg" viewBox="0 0 147.85 167.82"><defs><style>.cls-1{fill:none;}.cls-1,.cls-2,.cls-4{stroke:#010101;stroke-miterlimit:10;}.cls-1,.cls-4{stroke-width:6px;}.cls-2,.cls-3{fill:#010101;}.cls-4{fill:#1d1d1b;}</style></defs><g id="Capa_2" data-name="Capa 2"><g id="Capa_2-2" data-name="Capa 2"><path class="cls-1" d="M90.76,36.17c28.15,4,48.83,17.14,48.83,32.79,0,18.78-29.77,34-66.5,34S6.59,87.74,6.59,69c0-16.62,23.33-30.46,54.15-33.42"/><path class="cls-1" d="M139.59,97.19c0,18.77-29.77,34-66.5,34S6.59,116,6.59,97.19"/><path class="cls-1" d="M6.67,69.68V121.4c0,.54-.08,1.09-.08,1.64s0,1.09.08,1.63v.12h0C8.46,142.75,37.51,157,73.09,157s64.63-14.29,66.41-32.25h0v-.12c.05-.54.08-1.09.08-1.63s0-1.1-.08-1.64V69"/><path class="cls-1" d="M61,35l-1.17,2.76A3.65,3.65,0,0,0,61,42S65.47,45,75.18,45.06"/><path class="cls-1" d="M77.25,6.4,76.21,4c-.57-1.34-1.53-1.27-2.14.17L61,35"/><path class="cls-1" d="M73.09,6.4l1-2.44c.57-1.34,1.53-1.27,2.14.17L90.52,37.72A3.65,3.65,0,0,1,89.3,42S84.87,45,75.16,45.06"/><circle class="cls-2" cx="59.58" cy="67.83" r="4.36"/><circle class="cls-2" cx="90.76" cy="67.83" r="4.36"/><path class="cls-3" d="M75.52,76.56c-4,0-7.42-1.44-9.27-3.57h0c0,3.72,4.15,6.73,9.28,6.73s9.27-3,9.27-6.73h0C82.93,75.12,79.48,76.56,75.52,76.56Z"/><path class="cls-1" d="M6.59,127.09s-13.41,15,11.61,15.15"/><path class="cls-1" d="M140.25,125.41s13.79,8.5-6.37,13.91"/><path class="cls-1" d="M18.81,142.36s-5.64,19.3,17,8.65"/><path class="cls-1" d="M132.69,139.32s7.64,18.6-16,10.4"/><path class="cls-1" d="M35.42,150.9S34.55,171,54,155.24"/><path class="cls-1" d="M115.25,149.9s.86,20.09-18.59,4.34"/><path class="cls-1" d="M55.4,155.72s2.88,19.91,19.08.82"/><path class="cls-1" d="M94.33,155.72s-2.88,19.91-19.07.82"/><ellipse class="cls-4" cx="34.28" cy="72.24" rx="6.89" ry="3.28"/><ellipse class="cls-4" cx="116.75" cy="72.99" rx="6.89" ry="3.28"/></g></g></svg>