<svg xmlns="http://www.w3.org/2000/svg" viewBox="0 0 155.81 144.53"><defs><style>.cls-1,.cls-3{fill:none;stroke-width:3px;}.cls-1,.cls-2,.cls-3{stroke:#040f14;stroke-miterlimit:10;}.cls-2{fill:#010101;}.cls-3{stroke-linecap:round;}</style></defs><g id="Capa_2" data-name="Capa 2"><g id="Capa_2-2" data-name="Capa 2"><path class="cls-1" d="M93.16,37.86c23,3.24,39.91,14,39.91,26.8,0,15.35-24.34,27.8-54.36,27.8S24.35,80,24.35,64.66c0-13.58,19.06-24.89,44.27-27.31"/><path class="cls-1" d="M133.07,87.74c0,15.35-24.34,27.79-54.36,27.79S24.35,103.09,24.35,87.74"/><path class="cls-1" d="M133.07,108.87c0-.45,0-.89-.06-1.33V64.66"/><path class="cls-1" d="M24.41,65.26v42.28c0,.44-.06.88-.06,1.33s0,.89.06,1.34v.1h0c1.46,14.68,25.21,26.36,54.29,26.36,26.16,0,48-9.45,53.2-22"/><path class="cls-1" d="M68.82,36.87l-.93,2.2a3.38,3.38,0,0,0,1.39,3.81s3.2,2.22,11.13,2.25"/><path class="cls-1" d="M82.11,13.52l-.85-2c-.46-1.1-1.34-.83-2,.61L68.82,36.87"/><path class="cls-1" d="M78.71,13.52l.85-2c.46-1.1,1.34-.83,2,.61L92.76,38.65a3.65,3.65,0,0,1-1.22,4.23s-3.2,2.22-11.14,2.25"/><circle class="cls-2" cx="67.66" cy="63.74" r="3.56"/><circle class="cls-2" cx="93.15" cy="63.74" r="3.56"/><path class="cls-2" d="M80.69,70.88A10.16,10.16,0,0,1,73.11,68h0c0,3,3.39,5.5,7.58,5.5S88.28,71,88.28,68h0A10.16,10.16,0,0,1,80.69,70.88Z"/><path class="cls-1" d="M24.35,112.18s-11,12.25,9.49,12.39"/><path class="cls-1" d="M136,118.76c-1.32,1.19-3.66,2.38-7.55,3.42"/><path class="cls-1" d="M34.33,124.67s-4.61,15.78,13.91,7.07"/><path class="cls-1" d="M127.44,122.18s6.24,15.21-13.09,8.5"/><path class="cls-1" d="M47.91,131.65s-.71,16.42,15.2,3.55"/><path class="cls-1" d="M113.17,130.83s.71,16.43-15.19,3.55"/><path class="cls-1" d="M64.25,135.59s2.35,16.27,15.59.67"/><path class="cls-1" d="M96.07,135.59s-2.35,16.27-15.59.67"/><ellipse class="cls-1" cx="138.94" cy="112.18" rx="12.34" ry="29.16"/><ellipse class="cls-1" cx="16.87" cy="43.16" rx="12.34" ry="29.16"/><ellipse class="cls-1" cx="46.98" cy="67.34" rx="5.63" ry="2.68"/><ellipse class="cls-1" cx="114.4" cy="67.96" rx="5.63" ry="2.68"/><line class="cls-3" x1="74.49" y1="3.72" x2="77.03" y2="7.38"/><line class="cls-3" x1="86.34" y1="3.72" x2="83.8" y2="7.38"/><line class="cls-3" x1="80.75" y1="1.5" x2="80.52" y2="5.95"/></g></g></svg>