<svg xmlns="http://www.w3.org/2000/svg" viewBox="0 0 172.34 125.86"><defs><style>.cls-1,.cls-3{fill:none;stroke-width:3px;}.cls-1,.cls-2,.cls-3,.cls-4{stroke:#040f14;stroke-miterlimit:10;}.cls-2,.cls-4{fill:#010101;}.cls-3,.cls-4{stroke-linecap:round;}</style></defs><g id="Capa_2" data-name="Capa 2"><g id="Capa_2-2" data-name="Capa 2"><path class="cls-1" d="M116.58,109.6c-9.27,3.17-21.16,5.08-34.12,5.08-29.62,0-53.62-9.94-53.62-22.21s24-22.2,53.62-22.2c14.56,0,27.77,2.4,37.43,6.3"/><path class="cls-1" d="M133,60.4V50.73c0-24.32-22.63-44-50.55-44S31.9,26.41,31.9,50.73V85.06"/><path class="cls-1" d="M54.81,13.83C54.35,6.88,51.27,1.5,47.54,1.5c-4,0-7.33,6.33-7.33,14.15v11"/><path class="cls-1" d="M110.26,13.83c.46-6.95,3.54-12.33,7.27-12.33,4,0,7.33,6.33,7.33,14.15v11"/><path class="cls-1" d="M36.55,32.27H2.46s-2.73.22,1,5c0,0,12.14,17,28.54,10.53"/><path class="cls-1" d="M128.39,32.27h34.1s2.72.22-1,5c0,0-12.15,17-28.54,10.53"/><path class="cls-2" d="M94,8c-3-.06-11.48.24-16.32,5a9.71,9.71,0,0,0,1.7,15.06c2.76,1.71,7,3.06,13.36,3a9.68,9.68,0,0,1,8,4.28c3,4.27,8.79,9.53,18.7,6.45a9.83,9.83,0,0,0,4.89-15.42A50.15,50.15,0,0,0,96,8.28,9.7,9.7,0,0,0,94,8Z"/><path class="cls-1" d="M126.59,61V64.9a5.46,5.46,0,0,1-1.08,3.34l-8.24,12.21a11.09,11.09,0,0,0-1,4.7v32s-.06,2.36,1,2.62l34.41,4.53a4.22,4.22,0,0,0,2.61-.32L170,115.09s.83-.25.83-1.85V80.18a2.45,2.45,0,0,0-.51-1.79L162,69.26v-5s.13-1.27-.89-1.27l-33.51-3.93S126.59,58.9,126.59,61Z"/><path class="cls-3" d="M169.17,80.45l-15.49,7.26s-2.05-.26,0-3l6.89-11.15"/><line class="cls-3" x1="116.58" y1="83.81" x2="147.12" y2="87.45"/><ellipse class="cls-2" cx="103.18" cy="60.28" rx="2.98" ry="4.62"/><line class="cls-4" x1="103.18" y1="56.18" x2="99.97" y2="52.98"/><ellipse class="cls-2" cx="61.96" cy="60.28" rx="2.98" ry="4.62"/><line class="cls-4" x1="61.96" y1="56.18" x2="58.76" y2="52.98"/><path class="cls-2" d="M82.46,93.82c-6.75,0-12.62-1.51-15.78-3.73h0c0,3.87,7.07,7,15.79,7s15.78-3.15,15.78-7h0C95.07,92.31,89.2,93.82,82.46,93.82Z"/><ellipse class="cls-2" cx="68.75" cy="81.65" rx="3.54" ry="0.97"/><ellipse class="cls-2" cx="96.16" cy="81.65" rx="3.54" ry="0.97"/></g></g></svg>