<svg xmlns="http://www.w3.org/2000/svg" viewBox="0 0 175.34 128.86"><defs><style>.cls-1,.cls-3{fill:none;stroke-width:6px;}.cls-1,.cls-2,.cls-3,.cls-4{stroke:#040f14;stroke-miterlimit:10;}.cls-2,.cls-4{fill:#010101;}.cls-3,.cls-4{stroke-linecap:round;}</style></defs><g id="Capa_2" data-name="Capa 2"><g id="Capa_2-2" data-name="Capa 2"><path class="cls-1" d="M118.08,111.1c-9.27,3.17-21.16,5.08-34.12,5.08-29.62,0-53.62-9.94-53.62-22.21s24-22.2,53.62-22.2c14.56,0,27.77,2.4,37.43,6.3"/><path class="cls-1" d="M134.51,61.9V52.23c0-24.32-22.63-44-50.55-44S33.4,27.91,33.4,52.23V86.56"/><path class="cls-1" d="M56.31,15.33C55.85,8.38,52.77,3,49,3c-4,0-7.33,6.33-7.33,14.15v11"/><path class="cls-1" d="M111.76,15.33C112.22,8.38,115.3,3,119,3c4,0,7.33,6.33,7.33,14.15v11"/><path class="cls-1" d="M38.05,33.77H4s-2.73.22,1,5c0,0,12.14,17,28.54,10.53"/><path class="cls-1" d="M129.89,33.77H164s2.72.22-1,5c0,0-12.15,17-28.54,10.53"/><path class="cls-2" d="M95.45,9.53c-3-.06-11.48.24-16.32,5a9.71,9.71,0,0,0,1.7,15.06c2.76,1.71,7,3.06,13.36,3a9.68,9.68,0,0,1,8,4.28c3,4.27,8.79,9.53,18.7,6.45A9.83,9.83,0,0,0,125.78,28,50.15,50.15,0,0,0,97.46,9.78,9.7,9.7,0,0,0,95.45,9.53Z"/><path class="cls-1" d="M128.09,62.48V66.4A5.46,5.46,0,0,1,127,69.74L118.77,82a11.09,11.09,0,0,0-1,4.7v32s-.06,2.36,1,2.62l34.41,4.53a4.22,4.22,0,0,0,2.61-.32l15.71-8.87s.83-.25.83-1.85V81.68a2.45,2.45,0,0,0-.51-1.79l-8.37-9.13v-5s.13-1.27-.89-1.27l-33.51-3.93S128.09,60.4,128.09,62.48Z"/><path class="cls-3" d="M170.67,82l-15.49,7.26s-2.05-.26,0-3l6.89-11.15"/><line class="cls-3" x1="118.08" y1="85.31" x2="148.62" y2="88.95"/><ellipse class="cls-2" cx="104.68" cy="61.78" rx="2.98" ry="4.62"/><line class="cls-4" x1="104.68" y1="57.68" x2="101.47" y2="54.48"/><ellipse class="cls-2" cx="63.46" cy="61.78" rx="2.98" ry="4.62"/><line class="cls-4" x1="63.46" y1="57.68" x2="60.26" y2="54.48"/><path class="cls-2" d="M84,95.32c-6.75,0-12.62-1.51-15.78-3.73h0c0,3.87,7.07,7,15.79,7s15.78-3.15,15.78-7h0C96.57,93.81,90.7,95.32,84,95.32Z"/><ellipse class="cls-2" cx="70.25" cy="83.15" rx="3.54" ry="0.97"/><ellipse class="cls-2" cx="97.66" cy="83.15" rx="3.54" ry="0.97"/></g></g></svg>