<svg width="45" height="45" viewBox="0 0 45 45" fill="none" xmlns="http://www.w3.org/2000/svg">
<path d="M21.5227 0C22.5 0.5 24.4545 3.8 24.4545 6C24.4545 8.2 23.145 9 21.5227 9C19.9005 9 18.5909 8.7 18.5909 6.5C18.5909 4.3 20.5455 3 21.5227 0ZM35.2045 17C40.0909 17 44 21 44 26C44 29.12 42.4559 31.86 40.0909 33.48V45H22.5H4.90909V33.48C2.54409 31.86 1 29.12 1 26C1 21 4.90909 17 9.79545 17H18.5909V11H24.4545V17H35.2045ZM22.5 31C23.7959 31 25.0388 30.4732 25.9552 29.5355C26.8716 28.5979 27.3864 27.3261 27.3864 26H30.3182C30.3182 27.3261 30.833 28.5979 31.7494 29.5355C32.6657 30.4732 33.9086 31 35.2045 31C36.5005 31 37.7434 30.4732 38.6597 29.5355C39.5761 28.5979 40.0909 27.3261 40.0909 26C40.0909 24.6739 39.5761 23.4021 38.6597 22.4645C37.7434 21.5268 36.5005 21 35.2045 21H9.79545C8.49951 21 7.25664 21.5268 6.34027 22.4645C5.4239 23.4021 4.90909 24.6739 4.90909 26C4.90909 27.3261 5.4239 28.5979 6.34027 29.5355C7.25664 30.4732 8.49951 31 9.79545 31C11.0914 31 12.3343 30.4732 13.2506 29.5355C14.167 28.5979 14.6818 27.3261 14.6818 26H17.6136C17.6136 27.3261 18.1284 28.5979 19.0448 29.5355C19.9612 30.4732 21.2041 31 22.5 31V31Z" fill="black"/>
</svg>
