<svg width="45" height="45" viewBox="0 0 45 45" fill="none" xmlns="http://www.w3.org/2000/svg">
<path d="M19.1091 35.1579C19.4089 35.1579 19.6964 35.2743 19.9083 35.4816C20.1203 35.6889 20.2394 35.97 20.2394 36.2632C20.2394 36.5563 20.1203 36.8374 19.9083 37.0447C19.6964 37.252 19.4089 37.3684 19.1091 37.3684C18.8093 37.3684 18.5218 37.252 18.3098 37.0447C18.0979 36.8374 17.9788 36.5563 17.9788 36.2632C17.9788 35.97 18.0979 35.6889 18.3098 35.4816C18.5218 35.2743 18.8093 35.1579 19.1091 35.1579ZM25.8909 35.1579C26.1907 35.1579 26.4782 35.2743 26.6902 35.4816C26.9021 35.6889 27.0212 35.97 27.0212 36.2632C27.0212 36.5563 26.9021 36.8374 26.6902 37.0447C26.4782 37.252 26.1907 37.3684 25.8909 37.3684C25.5911 37.3684 25.3036 37.252 25.0917 37.0447C24.8797 36.8374 24.7606 36.5563 24.7606 36.2632C24.7606 35.97 24.8797 35.6889 25.0917 35.4816C25.3036 35.2743 25.5911 35.1579 25.8909 35.1579ZM17.9788 19.6842C18.5783 19.6842 19.1533 19.9171 19.5773 20.3317C20.0012 20.7462 20.2394 21.3085 20.2394 21.8947C20.2394 22.481 20.0012 23.0433 19.5773 23.4578C19.1533 23.8724 18.5783 24.1053 17.9788 24.1053C17.3792 24.1053 16.8042 23.8724 16.3803 23.4578C15.9564 23.0433 15.7182 22.481 15.7182 21.8947C15.7182 21.3085 15.9564 20.7462 16.3803 20.3317C16.8042 19.9171 17.3792 19.6842 17.9788 19.6842V19.6842ZM27.0212 19.6842C27.6208 19.6842 28.1958 19.9171 28.6197 20.3317C29.0436 20.7462 29.2818 21.3085 29.2818 21.8947C29.2818 22.481 29.0436 23.0433 28.6197 23.4578C28.1958 23.8724 27.6208 24.1053 27.0212 24.1053C26.4217 24.1053 25.8467 23.8724 25.4227 23.4578C24.9988 23.0433 24.7606 22.481 24.7606 21.8947C24.7606 21.3085 24.9988 20.7462 25.4227 20.3317C25.8467 19.9171 26.4217 19.6842 27.0212 19.6842V19.6842ZM36.0636 35.1579C36.0636 40.0432 29.9826 44 22.5 44C15.0174 44 8.93637 40.0432 8.93637 35.1579C8.93637 33.1684 9.95364 31.3337 11.6491 29.8526C9.95364 27.6421 8.93637 24.8789 8.93637 21.8947L9.20764 19.1979C7.98691 19.5295 6.51752 19.5295 5.3194 19.1979C3.01358 18.5789 -0.467749 16.0368 0.0521897 14.2684C0.572129 12.5 4.88988 12.1684 7.1957 12.8316C8.52946 13.2074 9.95364 14.1579 10.7901 15.1747L12.0786 13.3842C10.7222 10.9526 11.197 4.21053 17.9788 2L17.7753 2.30947C17.1424 3.28211 15.5147 6.35474 17.2328 9.67053C18.8604 9.00737 20.6237 8.63158 22.5 8.63158C24.3763 8.63158 26.1396 9.00737 27.7672 9.67053C29.4853 6.35474 27.8576 3.28211 27.2247 2.30947L27.0212 2C33.803 4.21053 34.2778 10.9526 32.9214 13.3842L34.2099 15.1747C35.0464 14.1579 36.4705 13.2074 37.8043 12.8316C40.1101 12.1684 44.4279 12.5 44.9478 14.2684C45.4677 16.0368 41.9864 18.5789 39.6806 19.1979C38.4825 19.5295 37.0131 19.5295 35.7924 19.1979L36.0636 21.8947C36.0636 24.8789 35.0464 27.6421 33.3509 29.8526C35.0464 31.3337 36.0636 33.1684 36.0636 35.1579ZM22.5 30.7368C17.5041 30.7368 13.4576 32.7263 13.4576 35.1579C13.4576 37.5895 17.5041 39.5789 22.5 39.5789C27.4959 39.5789 31.5424 37.5895 31.5424 35.1579C31.5424 32.7263 27.4959 30.7368 22.5 30.7368ZM22.5 26.3158C25.0319 26.3158 27.4055 26.78 29.4401 27.5537C30.7512 26.0284 31.5424 24.1053 31.5424 21.8947C31.5424 19.5497 30.5897 17.3006 28.894 15.6424C27.1982 13.9842 24.8982 13.0526 22.5 13.0526C20.1018 13.0526 17.8018 13.9842 16.106 15.6424C14.4103 17.3006 13.4576 19.5497 13.4576 21.8947C13.4576 24.1053 14.2488 26.0284 15.5599 27.5537C17.5945 26.78 19.9681 26.3158 22.5 26.3158Z" fill="black"/>
</svg>
