<svg width="45" height="45" viewBox="0 0 45 45" fill="none" xmlns="http://www.w3.org/2000/svg">
<path d="M22.5 3C11.775 3 3 11.7907 3 22.6175C3 32.4066 10.137 40.5316 19.458 42V28.2952H14.505V22.6175H19.458V18.2907C19.458 13.3765 22.3635 10.6747 26.829 10.6747C28.9545 10.6747 31.1775 11.0467 31.1775 11.0467V15.8825H28.7205C26.3025 15.8825 25.542 17.3901 25.542 18.9367V22.6175H30.963L30.0855 28.2952H25.542V42C30.137 41.2714 34.3213 38.9174 37.3393 35.3631C40.3574 31.8087 42.0104 27.2882 42 22.6175C42 11.7907 33.225 3 22.5 3Z" fill="black"/>
</svg>
