<svg width="45" height="45" viewBox="0 0 45 45" fill="none" xmlns="http://www.w3.org/2000/svg">
<path fill-rule="evenodd" clip-rule="evenodd" d="M22.5 42C33.2696 42 42 33.2696 42 22.5C42 11.7304 33.2696 3 22.5 3C11.7304 3 3 11.7304 3 22.5C3 33.2696 11.7304 42 22.5 42ZM19.9959 13.5742C19.9826 11.5666 20.8601 9.50579 21.7376 7.44499C22.655 9.41272 23.5724 11.3937 23.5857 13.4014C23.599 14.239 23.4527 15.0899 23.2134 15.9275C23.3198 15.7414 23.4261 15.5552 23.5591 15.3691C24.6759 13.8135 26.8829 12.484 29.1033 11.1544C29.1033 12.9227 29.1033 14.7043 27.9998 16.2466C27.0026 17.6426 25.1147 18.8658 23.1203 20.0624V22.6949L14.7176 14.2922C14.4783 13.2684 14.4783 12.2181 14.4783 11.1544C16.6986 12.484 18.9057 13.8135 20.0225 15.3691C20.1554 15.5552 20.2751 15.7547 20.3815 15.9674C20.1554 15.1431 20.0092 14.3719 19.9959 13.5742ZM8.49534 14.8373L10.1972 13.1487C12.814 15.7656 15.291 18.2441 17.732 20.6866C22.5088 25.4664 27.1477 30.1081 32.4272 35.3787L30.7386 37.0806L25.8725 32.2144C25.0482 32.8393 24.1042 33.4376 23.1203 34.0226V36.4158H20.4612V34.0226C18.4669 32.826 16.579 31.6028 15.5818 30.2068C14.4783 28.6645 14.4783 26.8829 14.4783 25.1147C16.6986 26.4442 18.9057 27.7737 20.0225 29.3293L20.4612 30.0739V27.0425C18.4669 25.8459 16.579 24.6227 15.5818 23.2267C15.0766 22.522 14.8107 21.7908 14.6644 21.0064L8.49534 14.8373ZM23.5591 22.3492C24.6759 20.7936 26.8829 19.4641 29.1033 18.1345C29.1033 19.9028 29.1033 21.6844 27.9998 23.2267C27.4679 23.9712 26.6702 24.6626 25.7794 25.3274L23.2799 22.8411L23.5591 22.3492ZM26.9095 26.4841C27.6142 26.0187 28.3454 25.5667 29.1033 25.1147V25.1147C29.1033 26.2182 29.1033 27.335 28.8241 28.3986L26.9095 26.4841Z" fill="black"/>
</svg>
