<svg width="45" height="45" viewBox="0 0 45 45" fill="none" xmlns="http://www.w3.org/2000/svg">
<circle cx="22.5" cy="22.5" r="19" stroke="black"/>
<path d="M22.209 28.9336H20.8203C20.832 28.0195 20.9258 27.2285 21.1016 26.5605C21.2773 25.8809 21.5703 25.248 21.9805 24.6621C22.3906 24.0762 22.9473 23.4551 23.6504 22.7988C24.3301 22.1309 24.916 21.5156 25.4082 20.9531C25.9121 20.3906 26.2988 19.7695 26.5684 19.0898C26.8379 18.3984 26.9727 17.543 26.9727 16.5234C26.9727 15.5156 26.791 14.625 26.4277 13.8516C26.0762 13.0781 25.543 12.4687 24.8281 12.0234C24.1133 11.5781 23.2227 11.3555 22.1562 11.3555C21.1133 11.3555 20.2051 11.5664 19.4316 11.9883C18.6699 12.3984 18.0723 12.9844 17.6387 13.7461C17.2168 14.4961 16.9941 15.375 16.9707 16.3828H15.5645C15.5879 15.0469 15.8984 13.9043 16.4961 12.9551C17.0938 12.0059 17.8848 11.2852 18.8691 10.793C19.8652 10.3008 20.9609 10.0547 22.1562 10.0547C23.5039 10.0547 24.6348 10.3359 25.5488 10.8984C26.4746 11.4492 27.1777 12.2168 27.6582 13.2012C28.1387 14.1738 28.3789 15.2871 28.3789 16.541C28.3789 17.5723 28.2266 18.4922 27.9219 19.3008C27.6172 20.1094 27.166 20.877 26.5684 21.6035C25.9824 22.3184 25.2617 23.0684 24.4062 23.8535C23.5742 24.5098 23 25.2773 22.6836 26.1562C22.3672 27.0234 22.209 27.9492 22.209 28.9336ZM20.4512 34.9805C20.4512 34.6641 20.5566 34.3945 20.7676 34.1719C20.9785 33.9492 21.2539 33.8379 21.5938 33.8379C21.9336 33.8379 22.2148 33.9492 22.4375 34.1719C22.6602 34.3945 22.7715 34.6641 22.7715 34.9805C22.7715 35.2969 22.6602 35.5664 22.4375 35.7891C22.2148 36.0117 21.9336 36.123 21.5938 36.123C21.2539 36.123 20.9785 36.0117 20.7676 35.7891C20.5566 35.5664 20.4512 35.2969 20.4512 34.9805Z" fill="black"/>
</svg>
