<svg width="45" height="45" viewBox="0 0 45 45" fill="none" xmlns="http://www.w3.org/2000/svg">
<mask id="path-1-inside-1_360_440" fill="white">
<path fill-rule="evenodd" clip-rule="evenodd" d="M22.5 42C33.2696 42 42 33.2696 42 22.5C42 11.7304 33.2696 3 22.5 3C11.7304 3 3 11.7304 3 22.5C3 33.2696 11.7304 42 22.5 42ZM20.8203 28.9336H22.209C22.209 27.9492 22.3672 27.0234 22.6836 26.1562C23 25.2773 23.5742 24.5098 24.4062 23.8535C25.2617 23.0684 25.9824 22.3184 26.5684 21.6035C27.166 20.877 27.6172 20.1094 27.9219 19.3008C28.2266 18.4922 28.3789 17.5723 28.3789 16.541C28.3789 15.2871 28.1387 14.1738 27.6582 13.2012C27.1777 12.2168 26.4746 11.4492 25.5488 10.8984C24.6348 10.3359 23.5039 10.0547 22.1562 10.0547C20.9609 10.0547 19.8652 10.3008 18.8691 10.793C17.8848 11.2852 17.0938 12.0059 16.4961 12.9551C15.8984 13.9043 15.5879 15.0469 15.5645 16.3828H16.9707C16.9941 15.375 17.2168 14.4961 17.6387 13.7461C18.0723 12.9844 18.6699 12.3984 19.4316 11.9883C20.2051 11.5664 21.1133 11.3555 22.1562 11.3555C23.2227 11.3555 24.1133 11.5781 24.8281 12.0234C25.543 12.4688 26.0762 13.0781 26.4277 13.8516C26.791 14.625 26.9727 15.5156 26.9727 16.5234C26.9727 17.543 26.8379 18.3984 26.5684 19.0898C26.2988 19.7695 25.9121 20.3906 25.4082 20.9531C24.916 21.5156 24.3301 22.1309 23.6504 22.7988C22.9473 23.4551 22.3906 24.0762 21.9805 24.6621C21.5703 25.248 21.2773 25.8809 21.1016 26.5605C20.9258 27.2285 20.832 28.0195 20.8203 28.9336ZM20.7676 34.1719C20.5566 34.3945 20.4512 34.6641 20.4512 34.9805C20.4512 35.2969 20.5566 35.5664 20.7676 35.7891C20.9785 36.0117 21.2539 36.123 21.5938 36.123C21.9336 36.123 22.2148 36.0117 22.4375 35.7891C22.6602 35.5664 22.7715 35.2969 22.7715 34.9805C22.7715 34.6641 22.6602 34.3945 22.4375 34.1719C22.2148 33.9492 21.9336 33.8379 21.5938 33.8379C21.2539 33.8379 20.9785 33.9492 20.7676 34.1719Z"/>
</mask>
<path fill-rule="evenodd" clip-rule="evenodd" d="M22.5 42C33.2696 42 42 33.2696 42 22.5C42 11.7304 33.2696 3 22.5 3C11.7304 3 3 11.7304 3 22.5C3 33.2696 11.7304 42 22.5 42ZM20.8203 28.9336H22.209C22.209 27.9492 22.3672 27.0234 22.6836 26.1562C23 25.2773 23.5742 24.5098 24.4062 23.8535C25.2617 23.0684 25.9824 22.3184 26.5684 21.6035C27.166 20.877 27.6172 20.1094 27.9219 19.3008C28.2266 18.4922 28.3789 17.5723 28.3789 16.541C28.3789 15.2871 28.1387 14.1738 27.6582 13.2012C27.1777 12.2168 26.4746 11.4492 25.5488 10.8984C24.6348 10.3359 23.5039 10.0547 22.1562 10.0547C20.9609 10.0547 19.8652 10.3008 18.8691 10.793C17.8848 11.2852 17.0938 12.0059 16.4961 12.9551C15.8984 13.9043 15.5879 15.0469 15.5645 16.3828H16.9707C16.9941 15.375 17.2168 14.4961 17.6387 13.7461C18.0723 12.9844 18.6699 12.3984 19.4316 11.9883C20.2051 11.5664 21.1133 11.3555 22.1562 11.3555C23.2227 11.3555 24.1133 11.5781 24.8281 12.0234C25.543 12.4688 26.0762 13.0781 26.4277 13.8516C26.791 14.625 26.9727 15.5156 26.9727 16.5234C26.9727 17.543 26.8379 18.3984 26.5684 19.0898C26.2988 19.7695 25.9121 20.3906 25.4082 20.9531C24.916 21.5156 24.3301 22.1309 23.6504 22.7988C22.9473 23.4551 22.3906 24.0762 21.9805 24.6621C21.5703 25.248 21.2773 25.8809 21.1016 26.5605C20.9258 27.2285 20.832 28.0195 20.8203 28.9336ZM20.7676 34.1719C20.5566 34.3945 20.4512 34.6641 20.4512 34.9805C20.4512 35.2969 20.5566 35.5664 20.7676 35.7891C20.9785 36.0117 21.2539 36.123 21.5938 36.123C21.9336 36.123 22.2148 36.0117 22.4375 35.7891C22.6602 35.5664 22.7715 35.2969 22.7715 34.9805C22.7715 34.6641 22.6602 34.3945 22.4375 34.1719C22.2148 33.9492 21.9336 33.8379 21.5938 33.8379C21.2539 33.8379 20.9785 33.9492 20.7676 34.1719Z" fill="black"/>
<path d="M22.209 28.9336V29.9336H23.209V28.9336H22.209ZM20.8203 28.9336L19.8204 28.9208L19.8074 29.9336H20.8203V28.9336ZM22.6836 26.1562L23.623 26.499L23.6245 26.495L22.6836 26.1562ZM24.4062 23.8535L25.0255 24.6387L25.0549 24.6155L25.0824 24.5903L24.4062 23.8535ZM26.5684 21.6035L25.7961 20.9682L25.795 20.9696L26.5684 21.6035ZM27.6582 13.2012L26.7595 13.6398L26.7616 13.6441L27.6582 13.2012ZM25.5488 10.8984L25.0247 11.7501L25.0311 11.754L25.0375 11.7578L25.5488 10.8984ZM18.8691 10.793L18.4261 9.89643L18.4219 9.89854L18.8691 10.793ZM15.5645 16.3828L14.5646 16.3653L14.5468 17.3828H15.5645V16.3828ZM16.9707 16.3828V17.3828H17.9477L17.9704 16.4061L16.9707 16.3828ZM17.6387 13.7461L16.7696 13.2514L16.7671 13.2558L17.6387 13.7461ZM19.4316 11.9883L19.9057 12.8688L19.9105 12.8662L19.4316 11.9883ZM26.4277 13.8516L25.5173 14.2654L25.5226 14.2767L26.4277 13.8516ZM26.5684 19.0898L27.498 19.4585L27.5001 19.4531L26.5684 19.0898ZM25.4082 20.9531L24.6633 20.2858L24.6556 20.2946L25.4082 20.9531ZM23.6504 22.7988L24.3327 23.5299L24.3421 23.5211L24.3513 23.5121L23.6504 22.7988ZM21.1016 26.5605L22.0686 26.815L22.0697 26.8109L21.1016 26.5605ZM41 22.5C41 32.7173 32.7173 41 22.5 41V43C33.8218 43 43 33.8218 43 22.5H41ZM22.5 4C32.7173 4 41 12.2827 41 22.5H43C43 11.1782 33.8218 2 22.5 2V4ZM4 22.5C4 12.2827 12.2827 4 22.5 4V2C11.1782 2 2 11.1782 2 22.5H4ZM22.5 41C12.2827 41 4 32.7173 4 22.5H2C2 33.8218 11.1782 43 22.5 43V41ZM22.209 27.9336H20.8203V29.9336H22.209V27.9336ZM21.7442 25.8135C21.3851 26.7976 21.209 27.8401 21.209 28.9336H23.209C23.209 28.0583 23.3493 27.2493 23.623 26.499L21.7442 25.8135ZM23.787 23.0683C22.8283 23.8245 22.1307 24.7399 21.7427 25.8175L23.6245 26.495C23.8693 25.8148 24.3201 25.1951 25.0255 24.6387L23.787 23.0683ZM25.795 20.9696C25.2454 21.6401 24.5591 22.3559 23.7301 23.1168L25.0824 24.5903C25.9643 23.7809 26.7194 22.9967 27.3418 22.2374L25.795 20.9696ZM26.9861 18.9482C26.7233 19.6455 26.3303 20.3188 25.7961 20.9682L27.3406 22.2388C28.0018 21.4351 28.511 20.5732 28.8576 19.6534L26.9861 18.9482ZM27.3789 16.541C27.3789 17.4745 27.241 18.2718 26.9861 18.9482L28.8576 19.6534C29.2121 18.7126 29.3789 17.67 29.3789 16.541H27.3789ZM26.7616 13.6441C27.1642 14.459 27.3789 15.4168 27.3789 16.541H29.3789C29.3789 15.1574 29.1131 13.8886 28.5548 12.7583L26.7616 13.6441ZM25.0375 11.7578C25.793 12.2073 26.3629 12.8273 26.7595 13.6398L28.5569 12.7625C27.9925 11.6063 27.1562 10.6911 26.0601 10.039L25.0375 11.7578ZM22.1562 11.0547C23.3658 11.0547 24.304 11.3066 25.0247 11.7501L26.0729 10.0468C24.9656 9.36532 23.642 9.05469 22.1562 9.05469V11.0547ZM19.3121 11.6895C20.1602 11.2705 21.1027 11.0547 22.1562 11.0547V9.05469C20.8192 9.05469 19.5703 9.33111 18.4262 9.89644L19.3121 11.6895ZM17.3423 13.4879C17.8445 12.6903 18.4988 12.0962 19.3164 11.6874L18.4219 9.89854C17.2707 10.4742 16.343 11.3214 15.6499 12.4223L17.3423 13.4879ZM16.5643 16.4004C16.5852 15.2118 16.8591 14.2553 17.3423 13.4879L15.6499 12.4223C14.9377 13.5533 14.5906 14.8819 14.5646 16.3653L16.5643 16.4004ZM16.9707 15.3828H15.5645V17.3828H16.9707V15.3828ZM16.7671 13.2558C16.2521 14.1713 15.9976 15.2161 15.971 16.3596L17.9704 16.4061C17.9907 15.5339 18.1815 14.8209 18.5102 14.2364L16.7671 13.2558ZM18.9575 11.1078C18.0283 11.6082 17.2948 12.3288 16.7696 13.2514L18.5077 14.2408C18.8498 13.6399 19.3115 13.1887 19.9057 12.8688L18.9575 11.1078ZM22.1562 10.3555C20.9767 10.3555 19.8979 10.5948 18.9528 11.1104L19.9105 12.8662C20.5122 12.538 21.2498 12.3555 22.1562 12.3555V10.3555ZM25.3569 11.1747C24.4462 10.6073 23.3603 10.3555 22.1562 10.3555V12.3555C23.085 12.3555 23.7804 12.5489 24.2994 12.8722L25.3569 11.1747ZM27.3381 13.4378C26.9057 12.4866 26.2406 11.7252 25.3569 11.1747L24.2994 12.8722C24.8454 13.2123 25.2466 13.6697 25.5174 14.2654L27.3381 13.4378ZM27.9727 16.5234C27.9727 15.3948 27.7689 14.3547 27.3329 13.4264L25.5226 14.2767C25.8132 14.8953 25.9727 15.6365 25.9727 16.5234H27.9727ZM27.5001 19.4531C27.8282 18.6114 27.9727 17.6239 27.9727 16.5234H25.9727C25.9727 17.462 25.8476 18.1855 25.6367 18.7266L27.5001 19.4531ZM26.153 21.6204C26.733 20.9729 27.1835 20.2514 27.4979 19.4585L25.6388 18.7212C25.4142 19.2876 25.0912 19.8083 24.6634 20.2859L26.153 21.6204ZM24.3513 23.5121C25.0443 22.831 25.6483 22.1973 26.1608 21.6116L24.6556 20.2946C24.1837 20.8339 23.6158 21.4307 22.9495 22.0856L24.3513 23.5121ZM22.7997 25.2356C23.1589 24.7225 23.6644 24.1537 24.3327 23.5299L22.9681 22.0678C22.2302 22.7565 21.6224 23.4298 21.1612 24.0886L22.7997 25.2356ZM22.0697 26.8109C22.215 26.2492 22.4568 25.7255 22.7997 25.2356L21.1612 24.0886C20.6838 24.7706 20.3397 25.5126 20.1334 26.3102L22.0697 26.8109ZM21.8202 28.9464C21.8312 28.0894 21.9191 27.3834 22.0686 26.815L20.1345 26.3061C19.9325 27.0736 19.8328 27.9497 19.8204 28.9208L21.8202 28.9464ZM21.4512 34.9805C21.4512 34.911 21.4646 34.8901 21.4935 34.8596L20.0416 33.4841C19.6486 33.8989 19.4512 34.4172 19.4512 34.9805H21.4512ZM21.4935 35.1013C21.4646 35.0708 21.4512 35.05 21.4512 34.9805H19.4512C19.4512 35.5438 19.6486 36.062 20.0416 36.4768L21.4935 35.1013ZM21.5938 35.123C21.5339 35.123 21.5098 35.1135 21.5071 35.1124C21.5051 35.1116 21.5045 35.1112 21.504 35.1108C21.5034 35.1104 21.4998 35.108 21.4935 35.1013L20.0416 36.4768C20.4628 36.9214 21.0121 37.123 21.5938 37.123V35.123ZM21.7304 35.082C21.7111 35.1013 21.6916 35.123 21.5938 35.123V37.123C22.1756 37.123 22.7186 36.9222 23.1446 36.4962L21.7304 35.082ZM21.7715 34.9805C21.7715 35.0189 21.7653 35.0344 21.7637 35.0382C21.7622 35.0418 21.7561 35.0562 21.7304 35.082L23.1446 36.4962C23.5558 36.085 23.7715 35.5606 23.7715 34.9805H21.7715ZM21.7304 34.879C21.7561 34.9047 21.7622 34.9191 21.7637 34.9228C21.7653 34.9265 21.7715 34.942 21.7715 34.9805H23.7715C23.7715 34.4003 23.5558 33.876 23.1446 33.4648L21.7304 34.879ZM21.5938 34.8379C21.6916 34.8379 21.7111 34.8597 21.7304 34.879L23.1446 33.4648C22.7186 33.0388 22.1756 32.8379 21.5938 32.8379V34.8379ZM21.4935 34.8596C21.4998 34.853 21.5034 34.8505 21.504 34.8501C21.5045 34.8497 21.5051 34.8493 21.5071 34.8485C21.5098 34.8474 21.5339 34.8379 21.5938 34.8379V32.8379C21.0121 32.8379 20.4628 33.0395 20.0416 33.4841L21.4935 34.8596Z" fill="black" mask="url(#path-1-inside-1_360_440)"/>
</svg>
