<svg width="45" height="45" viewBox="0 0 45 45" fill="none" xmlns="http://www.w3.org/2000/svg">
<path d="M14.31 3H30.69C36.93 3 42 8.07 42 14.31V30.69C42 33.6896 40.8084 36.5663 38.6874 38.6874C36.5663 40.8084 33.6896 42 30.69 42H14.31C8.07 42 3 36.93 3 30.69V14.31C3 11.3104 4.19159 8.43366 6.31262 6.31262C8.43366 4.19159 11.3104 3 14.31 3V3ZM13.92 6.9C12.0582 6.9 10.2726 7.63961 8.95611 8.95611C7.63961 10.2726 6.9 12.0582 6.9 13.92V31.08C6.9 34.9605 10.0395 38.1 13.92 38.1H31.08C32.9418 38.1 34.7274 37.3604 36.0439 36.0439C37.3604 34.7274 38.1 32.9418 38.1 31.08V13.92C38.1 10.0395 34.9605 6.9 31.08 6.9H13.92ZM32.7375 9.825C33.384 9.825 34.004 10.0818 34.4611 10.5389C34.9182 10.996 35.175 11.616 35.175 12.2625C35.175 12.909 34.9182 13.529 34.4611 13.9861C34.004 14.4432 33.384 14.7 32.7375 14.7C32.091 14.7 31.471 14.4432 31.0139 13.9861C30.5568 13.529 30.3 12.909 30.3 12.2625C30.3 11.616 30.5568 10.996 31.0139 10.5389C31.471 10.0818 32.091 9.825 32.7375 9.825ZM22.5 12.75C25.0859 12.75 27.5658 13.7772 29.3943 15.6057C31.2228 17.4342 32.25 19.9141 32.25 22.5C32.25 25.0859 31.2228 27.5658 29.3943 29.3943C27.5658 31.2228 25.0859 32.25 22.5 32.25C19.9141 32.25 17.4342 31.2228 15.6057 29.3943C13.7772 27.5658 12.75 25.0859 12.75 22.5C12.75 19.9141 13.7772 17.4342 15.6057 15.6057C17.4342 13.7772 19.9141 12.75 22.5 12.75V12.75ZM22.5 16.65C20.9485 16.65 19.4605 17.2663 18.3634 18.3634C17.2663 19.4605 16.65 20.9485 16.65 22.5C16.65 24.0515 17.2663 25.5395 18.3634 26.6366C19.4605 27.7337 20.9485 28.35 22.5 28.35C24.0515 28.35 25.5395 27.7337 26.6366 26.6366C27.7337 25.5395 28.35 24.0515 28.35 22.5C28.35 20.9485 27.7337 19.4605 26.6366 18.3634C25.5395 17.2663 24.0515 16.65 22.5 16.65Z" fill="black"/>
</svg>
