<svg width="45" height="45" viewBox="0 0 45 45" fill="none" xmlns="http://www.w3.org/2000/svg">
<path fill-rule="evenodd" clip-rule="evenodd" d="M22.5 42C33.2696 42 42 33.2696 42 22.5C42 11.7304 33.2696 3 22.5 3C11.7304 3 3 11.7304 3 22.5C3 33.2696 11.7304 42 22.5 42ZM20.9757 29.9629C20.8511 29.8382 20.682 29.7682 20.5057 29.7682C20.3294 29.7682 20.1603 29.8382 20.0356 29.9629C19.9109 30.0876 19.8409 30.2566 19.8409 30.433C19.8409 30.6093 19.9109 30.7784 20.0356 30.903C20.1603 31.0277 20.3294 31.0977 20.5057 31.0977C20.682 31.0977 20.8511 31.0277 20.9757 30.903C21.1004 30.7784 21.1705 30.6093 21.1705 30.433C21.1705 30.2566 21.1004 30.0876 20.9757 29.9629ZM24.9644 29.9629C24.8397 29.8382 24.6706 29.7682 24.4943 29.7682C24.318 29.7682 24.1489 29.8382 24.0243 29.9629C23.8996 30.0876 23.8295 30.2566 23.8295 30.433C23.8295 30.6093 23.8996 30.7784 24.0243 30.903C24.1489 31.0277 24.318 31.0977 24.4943 31.0977C24.6706 31.0977 24.8397 31.0277 24.9644 30.903C25.0891 30.7784 25.1591 30.6093 25.1591 30.433C25.1591 30.2566 25.0891 30.0876 24.9644 29.9629ZM20.781 20.8508C20.5317 20.6014 20.1935 20.4614 19.8409 20.4614C19.4883 20.4614 19.1501 20.6014 18.9008 20.8508C18.6514 21.1001 18.5114 21.4383 18.5114 21.7909C18.5114 22.1435 18.6514 22.4817 18.9008 22.731C19.1501 22.9804 19.4883 23.1205 19.8409 23.1205C20.1935 23.1205 20.5317 22.9804 20.781 22.731C21.0304 22.4817 21.1705 22.1435 21.1705 21.7909C21.1705 21.4383 21.0304 21.1001 20.781 20.8508ZM26.0992 20.8508C25.8499 20.6014 25.5117 20.4614 25.1591 20.4614C24.8065 20.4614 24.4683 20.6014 24.219 20.8508C23.9696 21.1001 23.8295 21.4383 23.8295 21.7909C23.8295 22.1435 23.9696 22.4817 24.219 22.731C24.4683 22.9804 24.8065 23.1205 25.1591 23.1205C25.5117 23.1205 25.8499 22.9804 26.0992 22.731C26.3486 22.4817 26.4886 22.1435 26.4886 21.7909C26.4886 21.4383 26.3486 21.1001 26.0992 20.8508ZM22.5 35.0864C26.9008 35.0864 30.4773 32.7065 30.4773 29.7682C30.4773 28.5716 29.879 27.4681 28.8818 26.5773C29.879 25.2477 30.4773 23.5858 30.4773 21.7909L30.3177 20.1689C31.0357 20.3683 31.8999 20.3683 32.6045 20.1689C33.9607 19.7966 36.0082 18.2676 35.7024 17.204C35.3966 16.1403 32.8572 15.9409 31.501 16.3398C30.7166 16.5658 29.879 17.1375 29.387 17.7491L28.6292 16.6722C29.4269 15.2097 29.1477 11.1545 25.1591 9.825L25.2787 10.0111C25.651 10.5961 26.6083 12.4442 25.5978 14.4385C24.6406 14.0397 23.6035 13.8136 22.5 13.8136C21.3965 13.8136 20.3594 14.0397 19.4022 14.4385C18.3917 12.4442 19.349 10.5961 19.7212 10.0111L19.8409 9.825C15.8523 11.1545 15.5731 15.2097 16.3708 16.6722L15.613 17.7491C15.121 17.1375 14.2834 16.5658 13.499 16.3398C12.1428 15.9409 9.60341 16.1403 9.29761 17.204C8.99182 18.2676 11.0393 19.7966 12.3955 20.1689C13.1001 20.3683 13.9643 20.3683 14.6823 20.1689L14.5227 21.7909C14.5227 23.5858 15.121 25.2477 16.1182 26.5773C15.121 27.4681 14.5227 28.5716 14.5227 29.7682C14.5227 32.7065 18.0992 35.0864 22.5 35.0864ZM17.1818 29.7682C17.1818 28.3057 19.5617 27.1091 22.5 27.1091C25.4383 27.1091 27.8182 28.3057 27.8182 29.7682C27.8182 31.2307 25.4383 32.4273 22.5 32.4273C19.5617 32.4273 17.1818 31.2307 17.1818 29.7682ZM26.5817 25.1945C25.3851 24.7292 23.9891 24.45 22.5 24.45C21.0109 24.45 19.6149 24.7292 18.4183 25.1945C17.6472 24.2772 17.1818 23.1205 17.1818 21.7909C17.1818 20.3804 17.7421 19.0277 18.7395 18.0304C19.7368 17.033 21.0895 16.4727 22.5 16.4727C23.9105 16.4727 25.2632 17.033 26.2605 18.0304C27.2579 19.0277 27.8182 20.3804 27.8182 21.7909C27.8182 23.1205 27.3528 24.2772 26.5817 25.1945Z" fill="black"/>
</svg>
