<svg width="45" height="45" viewBox="0 0 45 45" fill="none" xmlns="http://www.w3.org/2000/svg">
<path d="M23 12.2727C25.22 12.2727 27 10.4318 27 8.18182C27 7.40455 26.8 6.68864 26.42 6.075L23 0L19.58 6.075C19.2 6.68864 19 7.40455 19 8.18182C19 9.26679 19.4214 10.3073 20.1716 11.0745C20.9217 11.8417 21.9391 12.2727 23 12.2727ZM32.2 32.7273L30.06 30.5182L27.9 32.7273C25.3 35.3659 20.74 35.3864 18.12 32.7273L16 30.5182L13.8 32.7273C12.5 34.0364 10.76 34.7727 8.92 34.7727C7.46 34.7727 6.12 34.3023 5 33.525V42.9545C5 43.497 5.21071 44.0173 5.58579 44.4009C5.96086 44.7845 6.46957 45 7 45H39C39.5304 45 40.0391 44.7845 40.4142 44.4009C40.7893 44.0173 41 43.497 41 42.9545V33.525C39.88 34.3023 38.54 34.7727 37.08 34.7727C35.24 34.7727 33.5 34.0364 32.2 32.7273ZM35 18.4091H25V14.3182H21V18.4091H11C9.4087 18.4091 7.88258 19.0556 6.75736 20.2064C5.63214 21.3572 5 22.918 5 24.5455V27.6955C5 29.9045 6.76 31.7045 8.92 31.7045C10 31.7045 11 31.2955 11.68 30.5386L16 26.1818L20.22 30.5386C21.7 32.0523 24.28 32.0523 25.76 30.5386L30 26.1818L34.3 30.5386C35 31.2955 36 31.7045 37.06 31.7045C39.22 31.7045 41 29.9045 41 27.6955V24.5455C41 22.918 40.3679 21.3572 39.2426 20.2064C38.1174 19.0556 36.5913 18.4091 35 18.4091Z" fill="black"/>
</svg>
