<svg width="45" height="45" viewBox="0 0 45 45" fill="none" xmlns="http://www.w3.org/2000/svg">
<path fill-rule="evenodd" clip-rule="evenodd" d="M22.5 42C33.2696 42 42 33.2696 42 22.5C42 11.7304 33.2696 3 22.5 3C11.7304 3 3 11.7304 3 22.5C3 33.2696 11.7304 42 22.5 42ZM33.0522 29.653C33.4776 29.4269 33.7568 28.9882 33.7568 28.483V16.517C33.7568 16.0118 33.4776 15.5731 33.0522 15.347L22.5487 9.44386C22.336 9.28432 22.0701 9.20455 21.7909 9.20455C21.5117 9.20455 21.2458 9.28432 21.0331 9.44386L10.5297 15.347C10.1042 15.5731 9.825 16.0118 9.825 16.517V28.483C9.825 28.9882 10.1042 29.4269 10.5297 29.653L21.0331 35.5561C21.2458 35.7157 21.5117 35.7955 21.7909 35.7955C22.0701 35.7955 22.336 35.7157 22.5487 35.5561L33.0522 29.653ZM13.8668 16.517L21.7909 12.0631L29.715 16.517L21.7909 20.971L13.8668 16.517ZM20.4614 32.1924L12.4841 27.6985V18.7906L20.4614 23.2711V32.1924ZM31.0977 18.7906V27.6985L23.1205 32.1924V23.2711L31.0977 18.7906Z" fill="black"/>
</svg>
