<svg width="45" height="45" viewBox="0 0 45 45" fill="none" xmlns="http://www.w3.org/2000/svg">
<path d="M35.6414 11.3407C35.3689 11.2047 35.1035 11.0555 34.8464 10.8939C34.0988 10.4165 33.4133 9.85403 32.8047 9.21856C31.282 7.53596 30.7133 5.82898 30.5038 4.63386H30.5122C30.3373 3.64184 30.4096 3 30.4205 3H23.4852V28.8996C23.4852 29.2473 23.4852 29.591 23.47 29.9306C23.47 29.9728 23.4658 30.0118 23.4633 30.0573C23.4633 30.076 23.4633 30.0955 23.4591 30.115C23.4591 30.1199 23.4591 30.1248 23.4591 30.1296C23.386 31.0589 23.0775 31.9566 22.5609 32.7437C22.0442 33.5309 21.3352 34.1833 20.4962 34.6437C19.6217 35.1241 18.6327 35.3761 17.6266 35.3749C14.3953 35.3749 11.7765 32.8303 11.7765 29.6877C11.7765 26.5451 14.3953 24.0005 17.6266 24.0005C18.2383 23.9999 18.8462 24.0929 19.4278 24.2759L19.4362 17.4561C17.6707 17.2358 15.8771 17.3714 14.1685 17.8541C12.4599 18.3368 10.8735 19.1562 9.50926 20.2607C8.31388 21.2638 7.30892 22.4606 6.53961 23.7973C6.24685 24.2848 5.14227 26.2437 5.00851 29.4228C4.92438 31.2273 5.4855 33.0967 5.75302 33.8694V33.8856C5.92128 34.3406 6.57326 35.8932 7.63577 37.2021C8.49254 38.252 9.50479 39.1743 10.6399 39.9393V39.923L10.6567 39.9393C14.0142 42.1427 17.7368 41.9981 17.7368 41.9981C18.3812 41.9729 20.5399 41.9981 22.9913 40.876C25.7103 39.6322 27.2582 37.779 27.2582 37.779C28.2471 36.6716 29.0335 35.4097 29.5835 34.0473C30.2111 32.4541 30.4205 30.5432 30.4205 29.7795V16.0392C30.5047 16.0879 31.6252 16.8037 31.6252 16.8037C31.6252 16.8037 33.2396 17.803 35.7584 18.4538C37.5654 18.9169 40 19.0144 40 19.0144V12.3652C39.147 12.4546 37.4148 12.1946 35.6414 11.3407Z" fill="black"/>
</svg>
