<svg width="45" height="45" viewBox="0 0 45 45" fill="none" xmlns="http://www.w3.org/2000/svg">
<path d="M32 41.5L14 41.5C12.067 41.5 10.5 39.933 10.5 38L10.5 8.5L35.5 8.5L35.5 38C35.5 39.933 33.933 41.5 32 41.5Z" stroke="black"/>
<path d="M21 3.5L25 3.5C26.933 3.5 28.5 5.067 28.5 7L28.5 8.5L17.5 8.5L17.5 7C17.5 5.067 19.067 3.5 21 3.5Z" stroke="black"/>
<line x1="8.5" y1="8.5" x2="37.5" y2="8.5" stroke="black" stroke-linecap="round"/>
<line x1="16.7738" y1="18.6001" x2="28.2" y2="30.0263" stroke="black" stroke-linecap="round"/>
<line x1="0.5" y1="-0.5" x2="16.6591" y2="-0.5" transform="matrix(-0.707107 0.707107 0.707107 0.707107 29.1333 18.6001)" stroke="black" stroke-linecap="round"/>
</svg>
