<svg width="45" height="45" viewBox="0 0 45 45" fill="none" xmlns="http://www.w3.org/2000/svg">
<path d="M4 25.7143C4 30.8292 6.00178 35.7346 9.56497 39.3513C13.1282 42.9681 17.9609 45 23 45C23 34.2857 14.4922 25.7143 4 25.7143ZM23 9.64286C24.3998 9.64286 25.7422 10.2073 26.732 11.2119C27.7217 12.2166 28.2778 13.5792 28.2778 15C28.2778 16.4208 27.7217 17.7834 26.732 18.7881C25.7422 19.7927 24.3998 20.3571 23 20.3571C21.6002 20.3571 20.2578 19.7927 19.268 18.7881C18.2783 17.7834 17.7222 16.4208 17.7222 15C17.7222 13.5792 18.2783 12.2166 19.268 11.2119C20.2578 10.2073 21.6002 9.64286 23 9.64286ZM9.48889 19.8214C9.48889 21.2422 10.0449 22.6048 11.0347 23.6095C12.0245 24.6142 13.3669 25.1786 14.7667 25.1786C15.8856 25.1786 16.92 24.8143 17.7222 24.2357C17.7222 24.3643 17.7222 24.4929 17.7222 24.6429C17.7222 26.0637 18.2783 27.4263 19.268 28.4309C20.2578 29.4356 21.6002 30 23 30C24.3998 30 25.7422 29.4356 26.732 28.4309C27.7217 27.4263 28.2778 26.0637 28.2778 24.6429C28.2778 24.4929 28.2778 24.3643 28.2778 24.2357C29.08 24.8143 30.1144 25.1786 31.2333 25.1786C34.1467 25.1786 36.5111 22.7786 36.5111 19.8214C36.5111 17.6786 35.2656 15.8571 33.4922 15C35.2656 14.1429 36.5111 12.3 36.5111 10.1786C36.5111 7.22143 34.1467 4.82143 31.2333 4.82143C30.1144 4.82143 29.08 5.16429 28.2778 5.76429C28.2778 5.63571 28.2778 5.48571 28.2778 5.35714C28.2778 3.93634 27.7217 2.57373 26.732 1.56907C25.7422 0.564412 24.3998 0 23 0C21.6002 0 20.2578 0.564412 19.268 1.56907C18.2783 2.57373 17.7222 3.93634 17.7222 5.35714C17.7222 5.48571 17.7222 5.63571 17.7222 5.76429C16.92 5.16429 15.8856 4.82143 14.7667 4.82143C13.3669 4.82143 12.0245 5.38584 11.0347 6.3905C10.0449 7.39516 9.48889 8.75777 9.48889 10.1786C9.48889 12.3 10.7344 14.1429 12.5078 15C10.7344 15.8571 9.48889 17.6786 9.48889 19.8214ZM23 45C28.0391 45 32.8718 42.9681 36.435 39.3513C39.9982 35.7346 42 30.8292 42 25.7143C31.4444 25.7143 23 34.2857 23 45Z" fill="black"/>
</svg>
