<svg xmlns="http://www.w3.org/2000/svg" viewBox="0 0 261.13 239"><defs><style>.cls-1,.cls-2,.cls-3{fill:none;stroke-miterlimit:10;stroke-width:6px;}.cls-1{stroke:#1d1d1b;}.cls-1,.cls-3{stroke-linecap:round;}.cls-2,.cls-3{stroke:#1e1e1c;}.cls-4,.cls-5,.cls-6,.cls-7{isolation:isolate;}.cls-5,.cls-6,.cls-7{font-size:70px;fill:#1e1e1c;font-family:PPPangramSansRounded-Medium, PP Pangram Sans Rounded;font-weight:500;}.cls-5{letter-spacing:-0.03em;}.cls-7{letter-spacing:-0.02em;}</style></defs><g id="Capa_2" data-name="Capa 2"><g id="Capa_1-2" data-name="Capa 1"><path class="cls-1" d="M187,182.41c-.1-5.58-5.05-10.08-11.16-10.08s-11.05,4.5-11.16,10.08"/><path class="cls-1" d="M96.3,182.41c-.11-5.58-5.06-10.08-11.16-10.08S74.08,176.83,74,182.41"/><g id="Capa_2-2" data-name="Capa 2"><g id="Capa_1-2-2" data-name="Capa 1-2"><path class="cls-2" d="M3,67.11V204.46H3v.35C3,222.05,60.08,236,130.5,236S258,222,258,204.78v-.35h0V67.11"/><path class="cls-2" d="M258,67.11c0,17.25-57.08,31.23-127.5,31.23S3,84.36,3,67.11"/><path class="cls-3" d="M113.59,191.43c.16,7.1,7.71,12.81,17,12.81s16.84-5.71,17-12.81"/><path class="cls-3" d="M48,43.31C20.47,49,3,57.58,3,67.11a8.36,8.36,0,0,0,.63,3.12c-.22.52-.43,1.06-.63,1.6v34.24c5.22,13.7,16.49,23.18,29.55,23.18C49.22,129.25,63,113.82,65,93.9l.63.09a50.19,50.19,0,0,0-.38,6.13c0,22.27,14.62,40.32,32.65,40.32s32.65-18,32.65-40.32V98.34h.08v1.78c0,22.27,14.62,40.32,32.65,40.32s32.65-18,32.65-40.32a50.19,50.19,0,0,0-.38-6.13l.63-.09c2,19.92,15.73,35.35,32.4,35.35,13.06,0,24.33-9.48,29.55-23.18V71.83c-.2-.54-.41-1.08-.63-1.6a8.36,8.36,0,0,0,.63-3.12c0-9.53-17.47-18.07-45-23.8"/><g class="cls-4"><text class="cls-5" transform="translate(50.32 59.85)">v</text><text class="cls-6" transform="translate(85.53 59.85)">a</text><text class="cls-7" transform="translate(131.59 59.85)">k</text><text class="cls-6" transform="translate(166.94 59.85)">e</text></g></g></g></g></g></svg>