<svg xmlns="http://www.w3.org/2000/svg" viewBox="0 0 261 239.03"><defs><style>.cls-1,.cls-3{fill:none;stroke:#1d1d1b;stroke-miterlimit:10;stroke-width:6px;}.cls-2,.cls-4{fill:#1d1d1b;}.cls-3{stroke-linecap:round;}.cls-4{font-size:70px;font-family:PPPangramSansRounded-Semibold, PP Pangram Sans Rounded;font-weight:600;}.cls-5{letter-spacing:-0.03em;}.cls-6{letter-spacing:-0.02em;}.cls-7{letter-spacing:0em;}</style></defs><g id="Capa_2" data-name="Capa 2"><g id="Capa_1-2" data-name="Capa 1"><path class="cls-1" d="M3,67.11V204.46H3c0,.11,0,.23,0,.35C3,222.05,60.08,236,130.5,236s127.5-14,127.5-31.22c0-.12,0-.24,0-.35h0V67.11"/><path class="cls-1" d="M130.5,35.89"/><path class="cls-1" d="M258,67.11c0,17.25-57.08,31.23-127.5,31.23S3,84.36,3,67.11"/><ellipse class="cls-2" cx="86.41" cy="176.97" rx="3.06" ry="6.64"/><ellipse class="cls-2" cx="174.59" cy="176.97" rx="3.06" ry="6.64"/><path class="cls-3" d="M113.59,191.43c.16,7.1,7.71,12.81,17,12.81s16.84-5.71,17-12.81"/><text/><path class="cls-3" d="M48,43.31C20.47,49,3,57.58,3,67.11a8.36,8.36,0,0,0,.63,3.12c-.22.52-.43,1.06-.63,1.6v34.24c5.22,13.7,16.49,23.18,29.55,23.18C49.22,129.25,63,113.82,65,93.9l.63.09a49.46,49.46,0,0,0-.38,6.13c0,22.27,14.62,40.32,32.65,40.32s32.65-18,32.65-40.32c0-.6,0-1.19,0-1.78h.08c0,.59,0,1.18,0,1.78,0,22.27,14.62,40.32,32.65,40.32s32.65-18,32.65-40.32a49.46,49.46,0,0,0-.38-6.13l.63-.09c2,19.92,15.73,35.35,32.4,35.35,13.06,0,24.33-9.48,29.55-23.18V71.83c-.2-.54-.41-1.08-.63-1.6a8.36,8.36,0,0,0,.63-3.12c0-9.53-17.47-18.07-45-23.8"/><text class="cls-4" transform="translate(50.32 59.85)"><tspan class="cls-5">v</tspan><tspan x="35.21" y="0">a</tspan><tspan class="cls-6" x="81.27" y="0">k</tspan><tspan class="cls-7" x="116.62" y="0">e</tspan></text></g></g></svg>