<svg xmlns="http://www.w3.org/2000/svg" viewBox="0 0 260.1 242.79"><defs><style>.cls-1,.cls-2{fill:none;}.cls-1,.cls-2,.cls-3,.cls-7{stroke:#1d1d1b;stroke-miterlimit:10;}.cls-1{stroke-width:6px;}.cls-2,.cls-7{stroke-width:5px;}.cls-3{font-size:80px;stroke-width:0.75px;font-family:ClashGrotesk-Regular, Clash Grotesk;}.cls-3,.cls-7{fill:#1d1d1b;}.cls-4{letter-spacing:-0.02em;}.cls-5{letter-spacing:-0.03em;}.cls-6{letter-spacing:0em;}</style></defs><g id="Capa_2" data-name="Capa 2"><g id="Capa_1-2" data-name="Capa 1"><path class="cls-1" d="M130,42.54"/><path class="cls-2" d="M257.5,73.76C257.5,91,200.42,105,130,105S2.5,91,2.5,73.76"/><path class="cls-2" d="M257.6,209.07c0,17.24-57.09,31.22-127.5,31.22C61.76,240.29,6,227.12,2.74,210.58a8.57,8.57,0,0,1-.14-1.51"/><path class="cls-2" d="M113.09,198.08c.16,7.09,7.71,12.81,17,12.81s16.84-5.72,17-12.81"/><text/><path class="cls-2" d="M47.5,50C20,55.68,2.5,64.22,2.5,73.76a8.4,8.4,0,0,0,.63,3.12c-.22.52-.43,1.06-.63,1.59v34.25C7.72,126.42,19,135.9,32.05,135.9c16.67,0,30.41-15.43,32.4-35.36l.63.09a49.5,49.5,0,0,0-.38,6.14c0,22.27,14.62,40.32,32.65,40.32S130,129,130,106.77c0-.6,0-1.2,0-1.79H130c0,.59,0,1.19,0,1.79,0,22.27,14.62,40.32,32.65,40.32S195.3,129,195.3,106.77a49.5,49.5,0,0,0-.38-6.14l.63-.09c2,19.93,15.73,35.36,32.4,35.36,13.06,0,24.33-9.48,29.55-23.18V78.47c-.2-.53-.41-1.07-.63-1.59a8.4,8.4,0,0,0,.63-3.12c0-9.54-17.47-18.08-45-23.8"/><text class="cls-3" transform="translate(49.94 67.17)"><tspan class="cls-4">v</tspan><tspan x="38.96" y="0">a</tspan><tspan class="cls-5" x="79.04" y="0">k</tspan><tspan class="cls-6" x="116.72" y="0">e</tspan></text><line class="cls-2" x1="2.74" y1="210.58" x2="2.74" y2="102.72"/><line class="cls-2" x1="257.6" y1="210.58" x2="257.6" y2="102.72"/><ellipse class="cls-7" cx="85.91" cy="183.61" rx="3.06" ry="6.64"/><ellipse class="cls-7" cx="174.09" cy="183.61" rx="3.06" ry="6.64"/><path class="cls-2" d="M113.09,198.08c.16,7.09,7.71,12.81,17,12.81s16.84-5.72,17-12.81"/></g></g></svg>