<svg xmlns="http://www.w3.org/2000/svg" viewBox="0 0 261.13 239.12"><defs><style>.cls-1,.cls-2{fill:none;stroke-width:6px;}.cls-1,.cls-2,.cls-4,.cls-5,.cls-6{stroke:#f4eee0;stroke-miterlimit:10;}.cls-1{stroke-linecap:round;}.cls-3,.cls-4,.cls-5,.cls-6{isolation:isolate;}.cls-4,.cls-5,.cls-6{font-size:70px;fill:#f4eee0;stroke-width:0.25px;font-family:PPPangramSansRounded-Medium, PP Pangram Sans Rounded;font-weight:500;}.cls-4{letter-spacing:-0.03em;}.cls-6{letter-spacing:-0.02em;}</style></defs><g id="Capa_2" data-name="Capa 2"><g id="Capa_1-2" data-name="Capa 1"><path class="cls-1" d="M187,182.54c-.1-5.59-5.05-10.09-11.16-10.09s-11.05,4.5-11.16,10.09"/><path class="cls-1" d="M96.3,182.54c-.11-5.59-5.06-10.09-11.16-10.09S74.08,177,74,182.54"/><path class="cls-2" d="M3,67.23V204.58H3v.35c0,17.24,57.08,31.19,127.5,31.19S258,222.12,258,204.9v-.35h0V67.23"/><path class="cls-2" d="M258,67.23c0,17.25-57.08,31.23-127.5,31.23S3,84.48,3,67.23"/><path class="cls-1" d="M113.59,191.55c.16,7.1,7.71,12.81,17,12.81s16.84-5.71,17-12.81"/><path class="cls-1" d="M48,43.43C20.47,49.12,3,57.7,3,67.23a8.32,8.32,0,0,0,.63,3.12c-.22.52-.43,1.06-.63,1.6v34.24c5.22,13.7,16.49,23.18,29.55,23.18C49.22,129.37,63,113.94,65,94l.63.09a50.44,50.44,0,0,0-.38,6.13c0,22.27,14.62,40.32,32.65,40.32s32.65-18,32.65-40.32V98.46h.08v1.78c0,22.27,14.62,40.32,32.65,40.32s32.65-18,32.65-40.32a50.44,50.44,0,0,0-.38-6.13l.63-.09c2,19.92,15.73,35.35,32.4,35.35,13.06,0,24.33-9.48,29.55-23.18V72c-.2-.54-.41-1.08-.63-1.6a8.32,8.32,0,0,0,.63-3.12c0-9.53-17.47-18.07-45-23.8"/><g class="cls-3"><text class="cls-4" transform="translate(50.32 59.97)">v</text><text class="cls-5" transform="translate(85.53 59.97)">a</text><text class="cls-6" transform="translate(131.59 59.97)">k</text><text class="cls-5" transform="translate(166.94 59.97)">e</text></g></g></g></svg>