<svg xmlns="http://www.w3.org/2000/svg" viewBox="0 0 261.1 243.41"><defs><style>.cls-1,.cls-2{fill:none;stroke-width:6px;}.cls-1{stroke:#1d1d1b;}.cls-1,.cls-2,.cls-3{stroke-miterlimit:10;}.cls-2,.cls-3{stroke:#f4eee0;}.cls-3{font-size:80px;fill:#f4eee0;font-family:ClashGrotesk-Regular, Clash Grotesk;}.cls-4{letter-spacing:-0.02em;}.cls-5{letter-spacing:-0.03em;}.cls-6{letter-spacing:0em;}</style></defs><g id="Capa_2" data-name="Capa 2"><g id="Capa_1-2" data-name="Capa 1"><path class="cls-1" d="M130.5,42.66"/><path class="cls-2" d="M258,73.89c0,17.24-57.08,31.22-127.5,31.22S3,91.13,3,73.89"/><path class="cls-2" d="M258.1,209.19c0,17.24-57.09,31.22-127.5,31.22-68.34,0-124.13-13.16-127.36-29.7a8.6,8.6,0,0,1-.14-1.52"/><path class="cls-2" d="M113.59,198.21c.16,7.09,7.71,12.8,17,12.8s16.84-5.71,17-12.8"/><text/><path class="cls-2" d="M48,50.08C20.47,55.81,3,64.35,3,73.89A8.31,8.31,0,0,0,3.63,77c-.22.52-.43,1.06-.63,1.6v34.25C8.22,126.54,19.49,136,32.55,136,49.22,136,63,120.59,65,100.67l.63.09a49.46,49.46,0,0,0-.38,6.13c0,22.27,14.62,40.33,32.65,40.33s32.65-18.06,32.65-40.33c0-.6,0-1.19,0-1.78h.08c0,.59,0,1.18,0,1.78,0,22.27,14.62,40.33,32.65,40.33s32.65-18.06,32.65-40.33a49.46,49.46,0,0,0-.38-6.13l.63-.09c2,19.92,15.73,35.35,32.4,35.35,13.06,0,24.33-9.48,29.55-23.17V78.6c-.2-.54-.41-1.08-.63-1.6a8.31,8.31,0,0,0,.63-3.11c0-9.54-17.47-18.08-45-23.81"/><text class="cls-3" transform="translate(50.44 67.3)"><tspan class="cls-4">v</tspan><tspan x="38.96" y="0">a</tspan><tspan class="cls-5" x="79.04" y="0">k</tspan><tspan class="cls-6" x="116.72" y="0">e</tspan></text><line class="cls-2" x1="3.24" y1="210.71" x2="3.24" y2="102.85"/><line class="cls-2" x1="258.1" y1="210.71" x2="258.1" y2="102.85"/><ellipse class="cls-2" cx="86.41" cy="183.74" rx="3.06" ry="6.64"/><ellipse class="cls-2" cx="174.59" cy="183.74" rx="3.06" ry="6.64"/><path class="cls-2" d="M113.59,198.21c.16,7.09,7.71,12.8,17,12.8s16.84-5.71,17-12.8"/></g></g></svg>