<svg width="262" height="244" viewBox="0 0 262 244" fill="none" xmlns="http://www.w3.org/2000/svg">
<path d="M258 73.8896C258 91.1296 200.92 105.11 130.5 105.11C60.08 105.11 3 91.1296 3 73.8896" stroke="#1D1D1B" stroke-width="6" stroke-miterlimit="10" stroke-linecap="round"/>
<path d="M258.1 209.19C258.1 226.43 201.01 240.41 130.6 240.41C62.2601 240.41 6.4701 227.25 3.2401 210.71C3.14847 210.208 3.10162 209.7 3.1001 209.19" stroke="#1D1D1B" stroke-width="6" stroke-miterlimit="10" stroke-linecap="round"/>
<path d="M113.59 198.21C113.75 205.3 121.3 211.01 130.59 211.01C139.88 211.01 147.43 205.3 147.59 198.21" stroke="#1D1D1B" stroke-width="6" stroke-miterlimit="10" stroke-linecap="round"/>
<path d="M48 50.0796C20.47 55.8096 3 64.3496 3 73.8896C3.00829 74.9571 3.22219 76.013 3.63 76.9996C3.41 77.5196 3.2 78.0596 3 78.5996V112.85C8.22 126.54 19.49 136 32.55 136C49.22 136 63 120.59 65 100.67L65.63 100.76C65.3765 102.793 65.2496 104.84 65.25 106.89C65.25 129.16 79.87 147.22 97.9 147.22C115.93 147.22 130.55 129.16 130.55 106.89C130.55 106.29 130.55 105.7 130.55 105.11H130.63C130.63 105.7 130.63 106.29 130.63 106.89C130.63 129.16 145.25 147.22 163.28 147.22C181.31 147.22 195.93 129.16 195.93 106.89C195.93 104.84 195.804 102.793 195.55 100.76L196.18 100.67C198.18 120.59 211.91 136.02 228.58 136.02C241.64 136.02 252.91 126.54 258.13 112.85V78.5996C257.93 78.0596 257.72 77.5196 257.5 76.9996C257.908 76.013 258.122 74.9571 258.13 73.8896C258.13 64.3496 240.66 55.8096 213.13 50.0796" stroke="#1D1D1B" stroke-width="6" stroke-miterlimit="10" stroke-linecap="round"/>
<path d="M74.3599 62.2998L90.5199 22.7798H84.3599L71.0799 56.6998H70.6799L57.3199 22.7798H51.0799L67.2399 62.2998H74.3599ZM104.626 63.0998C112.146 63.0998 117.186 59.4998 119.506 54.9398L119.906 55.0198V62.2998H125.106V37.5798C125.106 28.7798 120.306 21.9798 109.746 21.9798C99.5062 21.9798 93.1862 28.5398 93.1862 36.7798V37.4198H98.7062V36.2198C98.7062 29.8998 102.066 27.0998 109.266 27.0998C116.706 27.0998 119.666 29.8998 119.666 36.8598V39.7398L105.746 41.6598C97.1062 42.8598 91.9862 45.8998 91.9862 52.7798C91.9862 59.4198 97.4262 63.0998 104.626 63.0998ZM97.5862 52.3798C97.5862 48.1398 99.9062 46.8598 106.226 45.9798L119.666 44.0598V45.4198C119.666 54.7798 113.026 58.2998 106.226 58.2998C100.146 58.2998 97.5862 56.4598 97.5862 52.3798ZM139.664 62.2998V44.5398H149.584L161.264 62.2998H167.984L154.224 41.4998L168.304 22.7798H161.584L149.584 39.3398H139.664V8.6998H133.904V62.2998H139.664ZM188.441 63.0998C198.521 63.0998 205.401 57.2598 205.401 49.6598V49.0998H199.721V49.5798C199.721 54.3798 196.521 57.9798 188.521 57.9798C179.081 57.9798 175.641 52.8598 175.401 44.1398H205.321C205.561 43.0198 205.721 41.2598 205.721 39.4198C205.721 27.7398 197.881 21.9798 188.361 21.9798C177.081 21.9798 169.961 30.5398 169.961 42.5398C169.961 54.5398 176.281 63.0998 188.441 63.0998ZM188.201 26.9398C195.961 26.9398 200.601 30.6198 200.281 39.9798H175.401C175.881 31.9798 179.401 26.9398 188.201 26.9398Z" fill="#1D1D1B"/>
<path d="M74.3599 62.2998V62.7998H74.6957L74.8227 62.489L74.3599 62.2998ZM90.5199 22.7798L90.9827 22.969L91.2646 22.2798H90.5199V22.7798ZM84.3599 22.7798V22.2798H84.0187L83.8944 22.5975L84.3599 22.7798ZM71.0799 56.6998V57.1998H71.4211L71.5455 56.8821L71.0799 56.6998ZM70.6799 56.6998L70.2147 56.883L70.3395 57.1998H70.6799V56.6998ZM57.3199 22.7798L57.7852 22.5966L57.6604 22.2798H57.3199V22.7798ZM51.0799 22.7798V22.2798H50.3353L50.6171 22.969L51.0799 22.7798ZM67.2399 62.2998L66.7771 62.489L66.9042 62.7998H67.2399V62.2998ZM74.8227 62.489L90.9827 22.969L90.0571 22.5906L73.8971 62.1106L74.8227 62.489ZM90.5199 22.2798H84.3599V23.2798H90.5199V22.2798ZM83.8944 22.5975L70.6144 56.5175L71.5455 56.8821L84.8255 22.9621L83.8944 22.5975ZM71.0799 56.1998H70.6799V57.1998H71.0799V56.1998ZM71.1452 56.5166L57.7852 22.5966L56.8547 22.963L70.2147 56.883L71.1452 56.5166ZM57.3199 22.2798H51.0799V23.2798H57.3199V22.2798ZM50.6171 22.969L66.7771 62.489L67.7027 62.1106L51.5427 22.5906L50.6171 22.969ZM67.2399 62.7998H74.3599V61.7998H67.2399V62.7998ZM119.506 54.9398L119.604 54.4495L119.232 54.3752L119.061 54.7131L119.506 54.9398ZM119.906 55.0198H120.406V54.6099L120.004 54.5295L119.906 55.0198ZM119.906 62.2998H119.406V62.7998H119.906V62.2998ZM125.106 62.2998V62.7998H125.606V62.2998H125.106ZM93.1862 37.4198H92.6862V37.9198H93.1862V37.4198ZM98.7062 37.4198V37.9198H99.2062V37.4198H98.7062ZM119.666 39.7398L119.735 40.2351L120.166 40.1756V39.7398H119.666ZM105.746 41.6598L105.678 41.1645L105.677 41.1646L105.746 41.6598ZM106.226 45.9798L106.295 46.475L106.297 46.4748L106.226 45.9798ZM119.666 44.0598H120.166V43.4833L119.595 43.5648L119.666 44.0598ZM104.626 63.5998C112.321 63.5998 117.541 59.9057 119.952 55.1665L119.061 54.7131C116.832 59.0939 111.971 62.5998 104.626 62.5998V63.5998ZM119.408 55.4301L119.808 55.5101L120.004 54.5295L119.604 54.4495L119.408 55.4301ZM119.406 55.0198V62.2998H120.406V55.0198H119.406ZM119.906 62.7998H125.106V61.7998H119.906V62.7998ZM125.606 62.2998V37.5798H124.606V62.2998H125.606ZM125.606 37.5798C125.606 33.0939 124.383 29.0617 121.758 26.1453C119.125 23.2202 115.139 21.4798 109.746 21.4798V22.4798C114.913 22.4798 118.607 24.1394 121.015 26.8143C123.43 29.4979 124.606 33.2657 124.606 37.5798H125.606ZM109.746 21.4798C104.518 21.4798 100.25 23.1562 97.285 25.9243C94.3192 28.6931 92.6862 32.5276 92.6862 36.7798H93.6862C93.6862 32.792 95.2132 29.2265 97.9674 26.6553C100.722 24.0834 104.735 22.4798 109.746 22.4798V21.4798ZM92.6862 36.7798V37.4198H93.6862V36.7798H92.6862ZM93.1862 37.9198H98.7062V36.9198H93.1862V37.9198ZM99.2062 37.4198V36.2198H98.2062V37.4198H99.2062ZM99.2062 36.2198C99.2062 33.1457 100.021 31.0314 101.611 29.6696C103.219 28.2931 105.715 27.5998 109.266 27.5998V26.5998C105.617 26.5998 102.834 27.3065 100.961 28.91C99.0713 30.5282 98.2062 32.9739 98.2062 36.2198H99.2062ZM109.266 27.5998C112.943 27.5998 115.383 28.2955 116.914 29.7341C118.436 31.1653 119.166 33.436 119.166 36.8598H120.166C120.166 33.3236 119.416 30.7143 117.599 29.0055C115.789 27.3041 113.029 26.5998 109.266 26.5998V27.5998ZM119.166 36.8598V39.7398H120.166V36.8598H119.166ZM119.598 39.2445L105.678 41.1645L105.815 42.1551L119.735 40.2351L119.598 39.2445ZM105.677 41.1646C101.329 41.7686 97.7877 42.8437 95.3262 44.6898C92.8326 46.56 91.4862 49.1923 91.4862 52.7798H92.4862C92.4862 49.4873 93.6998 47.1596 95.9262 45.4898C98.1847 43.7959 101.524 42.751 105.815 42.155L105.677 41.1646ZM91.4862 52.7798C91.4862 56.2523 92.9161 58.9791 95.3001 60.8251C97.67 62.6603 100.947 63.5998 104.626 63.5998V62.5998C101.105 62.5998 98.0623 61.6993 95.9123 60.0345C93.7763 58.3805 92.4862 55.9473 92.4862 52.7798H91.4862ZM98.0862 52.3798C98.0862 51.3625 98.2258 50.5609 98.5062 49.9136C98.7834 49.2738 99.2087 48.7598 99.8231 48.3293C101.083 47.4462 103.13 46.9157 106.295 46.475L106.157 45.4846C103.002 45.9239 100.729 46.4734 99.2493 47.5103C98.4937 48.0398 97.944 48.6958 97.5886 49.516C97.2366 50.3287 97.0862 51.2771 97.0862 52.3798H98.0862ZM106.297 46.4748L119.737 44.5548L119.595 43.5648L106.155 45.4848L106.297 46.4748ZM119.166 44.0598V45.4198H120.166V44.0598H119.166ZM119.166 45.4198C119.166 49.9696 117.559 53.0394 115.18 54.9826C112.784 56.939 109.548 57.7998 106.226 57.7998V58.7998C109.704 58.7998 113.188 57.9006 115.812 55.7571C118.453 53.6002 120.166 50.23 120.166 45.4198H119.166ZM106.226 57.7998C103.216 57.7998 101.183 57.3401 99.9109 56.4588C98.681 55.6066 98.0862 54.3039 98.0862 52.3798H97.0862C97.0862 54.5357 97.7714 56.193 99.3414 57.2808C100.869 58.3395 103.157 58.7998 106.226 58.7998V57.7998ZM139.664 62.2998V62.7998H140.164V62.2998H139.664ZM139.664 44.5398V44.0398H139.164V44.5398H139.664ZM149.584 44.5398L150.002 44.2651L149.854 44.0398H149.584V44.5398ZM161.264 62.2998L160.847 62.5745L160.995 62.7998H161.264V62.2998ZM167.984 62.2998V62.7998H168.915L168.401 62.0239L167.984 62.2998ZM154.224 41.4998L153.825 41.1993L153.613 41.4813L153.807 41.7757L154.224 41.4998ZM168.304 22.7798L168.704 23.0803L169.306 22.2798H168.304V22.7798ZM161.584 22.7798V22.2798H161.329L161.179 22.4864L161.584 22.7798ZM149.584 39.3398V39.8398H149.839L149.989 39.6332L149.584 39.3398ZM139.664 39.3398H139.164V39.8398H139.664V39.3398ZM139.664 8.6998H140.164V8.1998H139.664V8.6998ZM133.904 8.6998V8.1998H133.404V8.6998H133.904ZM133.904 62.2998H133.404V62.7998H133.904V62.2998ZM140.164 62.2998V44.5398H139.164V62.2998H140.164ZM139.664 45.0398H149.584V44.0398H139.664V45.0398ZM149.167 44.8145L160.847 62.5745L161.682 62.0251L150.002 44.2651L149.167 44.8145ZM161.264 62.7998H167.984V61.7998H161.264V62.7998ZM168.401 62.0239L154.641 41.2239L153.807 41.7757L167.567 62.5757L168.401 62.0239ZM154.624 41.8003L168.704 23.0803L167.905 22.4793L153.825 41.1993L154.624 41.8003ZM168.304 22.2798H161.584V23.2798H168.304V22.2798ZM161.179 22.4864L149.179 39.0464L149.989 39.6332L161.989 23.0732L161.179 22.4864ZM149.584 38.8398H139.664V39.8398H149.584V38.8398ZM140.164 39.3398V8.6998H139.164V39.3398H140.164ZM139.664 8.1998H133.904V9.1998H139.664V8.1998ZM133.404 8.6998V62.2998H134.404V8.6998H133.404ZM133.904 62.7998H139.664V61.7998H133.904V62.7998ZM205.401 49.0998H205.901V48.5998H205.401V49.0998ZM199.721 49.0998V48.5998H199.221V49.0998H199.721ZM175.401 44.1398V43.6398H174.887L174.901 44.1536L175.401 44.1398ZM205.321 44.1398V44.6398H205.725L205.809 44.2446L205.321 44.1398ZM200.281 39.9798V40.4798H200.764L200.78 39.9969L200.281 39.9798ZM175.401 39.9798L174.901 39.9499L174.87 40.4798H175.401V39.9798ZM188.441 63.5998C198.692 63.5998 205.901 57.6299 205.901 49.6598H204.901C204.901 56.8897 198.349 62.5998 188.441 62.5998V63.5998ZM205.901 49.6598V49.0998H204.901V49.6598H205.901ZM205.401 48.5998H199.721V49.5998H205.401V48.5998ZM199.221 49.0998V49.5798H200.221V49.0998H199.221ZM199.221 49.5798C199.221 51.8626 198.465 53.809 196.8 55.1957C195.123 56.5938 192.454 57.4798 188.521 57.4798V58.4798C192.587 58.4798 195.518 57.5659 197.441 55.9639C199.377 54.3506 200.221 52.097 200.221 49.5798H199.221ZM188.521 57.4798C183.89 57.4798 180.831 56.2267 178.887 54.0009C176.929 51.7586 176.019 48.4377 175.9 44.126L174.901 44.1536C175.022 48.5619 175.952 52.161 178.134 54.6587C180.33 57.1729 183.711 58.4798 188.521 58.4798V57.4798ZM175.401 44.6398H205.321V43.6398H175.401V44.6398ZM205.809 44.2446C206.059 43.0786 206.221 41.2809 206.221 39.4198H205.221C205.221 41.2387 205.062 42.961 204.832 44.035L205.809 44.2446ZM206.221 39.4198C206.221 33.4615 204.217 28.9603 200.949 25.952C197.688 22.95 193.218 21.4798 188.361 21.4798V22.4798C193.023 22.4798 197.233 23.8896 200.272 26.6877C203.304 29.4793 205.221 33.6981 205.221 39.4198H206.221ZM188.361 21.4798C182.585 21.4798 177.845 23.6756 174.555 27.4303C171.27 31.1784 169.461 36.4432 169.461 42.5398H170.461C170.461 36.6364 172.211 31.6212 175.307 28.0893C178.396 24.564 182.856 22.4798 188.361 22.4798V21.4798ZM169.461 42.5398C169.461 48.6221 171.062 53.8892 174.26 57.644C177.467 61.41 182.234 63.5998 188.441 63.5998V62.5998C182.487 62.5998 178.014 60.5096 175.021 56.9956C172.019 53.4704 170.461 48.4575 170.461 42.5398H169.461ZM188.201 27.4398C192.011 27.4398 194.958 28.3441 196.917 30.3034C198.873 32.2593 199.938 35.3603 199.781 39.9627L200.78 39.9969C200.943 35.2393 199.848 31.8203 197.624 29.5962C195.403 27.3755 192.15 26.4398 188.201 26.4398V27.4398ZM200.281 39.4798H175.401V40.4798H200.281V39.4798ZM175.9 40.0097C176.136 36.0654 177.119 32.9359 179.052 30.7948C180.971 28.6681 183.899 27.4398 188.201 27.4398V26.4398C183.702 26.4398 180.47 27.7315 178.309 30.1248C176.162 32.5037 175.145 35.8942 174.901 39.9499L175.9 40.0097Z" fill="#1D1D1B"/>
<path d="M3.24023 210.71V102.85" stroke="#1D1D1B" stroke-width="6" stroke-miterlimit="10" stroke-linecap="round"/>
<path d="M258.1 210.71V102.85" stroke="#1D1D1B" stroke-width="6" stroke-miterlimit="10" stroke-linecap="round"/>
<path d="M86.4101 190.38C88.1001 190.38 89.4701 187.407 89.4701 183.74C89.4701 180.072 88.1001 177.1 86.4101 177.1C84.7201 177.1 83.3501 180.072 83.3501 183.74C83.3501 187.407 84.7201 190.38 86.4101 190.38Z" stroke="#1D1D1B" stroke-width="6" stroke-miterlimit="10" stroke-linecap="round"/>
<path d="M174.59 190.38C176.28 190.38 177.65 187.407 177.65 183.74C177.65 180.072 176.28 177.1 174.59 177.1C172.9 177.1 171.53 180.072 171.53 183.74C171.53 187.407 172.9 190.38 174.59 190.38Z" stroke="#1D1D1B" stroke-width="6" stroke-miterlimit="10" stroke-linecap="round"/>
<path d="M113.59 198.21C113.75 205.3 121.3 211.01 130.59 211.01C139.88 211.01 147.43 205.3 147.59 198.21" stroke="#1D1D1B" stroke-width="6" stroke-miterlimit="10" stroke-linecap="round"/>
</svg>
